# Blender 5.1.1
# www.blender.org
mtllib GDT18.mtl
o Body
v 0.000000 -0.112500 -0.125000
v 0.000000 0.112500 -0.125000
v 0.024386 -0.112500 -0.122598
v 0.024386 0.112500 -0.122598
v 0.047835 -0.112500 -0.115485
v 0.047835 0.112500 -0.115485
v 0.069446 -0.112500 -0.103934
v 0.069446 0.112500 -0.103934
v 0.088388 -0.112500 -0.088388
v 0.088388 0.112500 -0.088388
v 0.103934 -0.112500 -0.069446
v 0.103934 0.112500 -0.069446
v 0.115485 -0.112500 -0.047835
v 0.115485 0.112500 -0.047835
v 0.122598 -0.112500 -0.024386
v 0.122598 0.112500 -0.024386
v 0.125000 -0.112500 0.000000
v 0.125000 0.112500 0.000000
v 0.122598 -0.112500 0.024386
v 0.122598 0.112500 0.024386
v 0.115485 -0.112500 0.047835
v 0.115485 0.112500 0.047835
v 0.103934 -0.112500 0.069446
v 0.103934 0.112500 0.069446
v 0.088388 -0.112500 0.088388
v 0.088388 0.112500 0.088388
v 0.069446 -0.112500 0.103934
v 0.069446 0.112500 0.103934
v 0.047835 -0.112500 0.115485
v 0.047835 0.112500 0.115485
v 0.024386 -0.112500 0.122598
v 0.024386 0.112500 0.122598
v 0.000000 -0.112500 0.125000
v 0.000000 0.112500 0.125000
v -0.024386 -0.112500 0.122598
v -0.024386 0.112500 0.122598
v -0.047835 -0.112500 0.115485
v -0.047835 0.112500 0.115485
v -0.069446 -0.112500 0.103934
v -0.069446 0.112500 0.103934
v -0.088388 -0.112500 0.088388
v -0.088388 0.112500 0.088388
v -0.103934 -0.112500 0.069446
v -0.103934 0.112500 0.069446
v -0.115485 -0.112500 0.047835
v -0.115485 0.112500 0.047835
v -0.122598 -0.112500 0.024386
v -0.122598 0.112500 0.024386
v -0.125000 -0.112500 0.000000
v -0.125000 0.112500 0.000000
v -0.122598 -0.112500 -0.024386
v -0.122598 0.112500 -0.024386
v -0.115485 -0.112500 -0.047835
v -0.115485 0.112500 -0.047835
v -0.103934 -0.112500 -0.069446
v -0.103934 0.112500 -0.069446
v -0.088388 -0.112500 -0.088388
v -0.088388 0.112500 -0.088388
v -0.069446 -0.112500 -0.103934
v -0.069446 0.112500 -0.103934
v -0.047835 -0.112500 -0.115485
v -0.047835 0.112500 -0.115485
v -0.024386 -0.112500 -0.122598
v -0.024386 0.112500 -0.122598
vn 0.0980 -0.0000 -0.9952
vn 0.2903 -0.0000 -0.9569
vn 0.4714 -0.0000 -0.8819
vn 0.6344 -0.0000 -0.7730
vn 0.7730 -0.0000 -0.6344
vn 0.8819 -0.0000 -0.4714
vn 0.9569 -0.0000 -0.2903
vn 0.9952 -0.0000 -0.0980
vn 0.9952 -0.0000 0.0980
vn 0.9569 -0.0000 0.2903
vn 0.8819 -0.0000 0.4714
vn 0.7730 -0.0000 0.6344
vn 0.6344 -0.0000 0.7730
vn 0.4714 -0.0000 0.8819
vn 0.2903 -0.0000 0.9569
vn 0.0980 -0.0000 0.9952
vn -0.0980 -0.0000 0.9952
vn -0.2903 -0.0000 0.9569
vn -0.4714 -0.0000 0.8819
vn -0.6344 -0.0000 0.7730
vn -0.7730 -0.0000 0.6344
vn -0.8819 -0.0000 0.4714
vn -0.9569 -0.0000 0.2903
vn -0.9952 -0.0000 0.0980
vn -0.9952 -0.0000 -0.0980
vn -0.9569 -0.0000 -0.2903
vn -0.8819 -0.0000 -0.4714
vn -0.7730 -0.0000 -0.6344
vn -0.6344 -0.0000 -0.7730
vn -0.4714 -0.0000 -0.8819
vn -0.0000 1.0000 -0.0000
vn -0.2903 -0.0000 -0.9569
vn -0.0980 -0.0000 -0.9952
vn -0.0000 -1.0000 -0.0000
vt 1.000000 0.500000
vt 1.000000 1.000000
vt 0.968750 1.000000
vt 0.968750 0.500000
vt 0.937500 1.000000
vt 0.937500 0.500000
vt 0.906250 1.000000
vt 0.906250 0.500000
vt 0.875000 1.000000
vt 0.875000 0.500000
vt 0.843750 1.000000
vt 0.843750 0.500000
vt 0.812500 1.000000
vt 0.812500 0.500000
vt 0.781250 1.000000
vt 0.781250 0.500000
vt 0.750000 1.000000
vt 0.750000 0.500000
vt 0.718750 1.000000
vt 0.718750 0.500000
vt 0.687500 1.000000
vt 0.687500 0.500000
vt 0.656250 1.000000
vt 0.656250 0.500000
vt 0.625000 1.000000
vt 0.625000 0.500000
vt 0.593750 1.000000
vt 0.593750 0.500000
vt 0.562500 1.000000
vt 0.562500 0.500000
vt 0.531250 1.000000
vt 0.531250 0.500000
vt 0.500000 1.000000
vt 0.500000 0.500000
vt 0.468750 1.000000
vt 0.468750 0.500000
vt 0.437500 1.000000
vt 0.437500 0.500000
vt 0.406250 1.000000
vt 0.406250 0.500000
vt 0.375000 1.000000
vt 0.375000 0.500000
vt 0.343750 1.000000
vt 0.343750 0.500000
vt 0.312500 1.000000
vt 0.312500 0.500000
vt 0.281250 1.000000
vt 0.281250 0.500000
vt 0.250000 1.000000
vt 0.250000 0.500000
vt 0.218750 1.000000
vt 0.218750 0.500000
vt 0.187500 1.000000
vt 0.187500 0.500000
vt 0.156250 1.000000
vt 0.156250 0.500000
vt 0.125000 1.000000
vt 0.125000 0.500000
vt 0.093750 1.000000
vt 0.093750 0.500000
vt 0.062500 1.000000
vt 0.062500 0.500000
vt 0.296822 0.485388
vt 0.250000 0.490000
vt 0.203178 0.485388
vt 0.158156 0.471731
vt 0.116663 0.449553
vt 0.080294 0.419706
vt 0.050447 0.383337
vt 0.028269 0.341844
vt 0.014612 0.296822
vt 0.010000 0.250000
vt 0.014612 0.203178
vt 0.028269 0.158156
vt 0.050447 0.116663
vt 0.080294 0.080294
vt 0.116663 0.050447
vt 0.158156 0.028269
vt 0.203178 0.014612
vt 0.250000 0.010000
vt 0.296822 0.014612
vt 0.341844 0.028269
vt 0.383337 0.050447
vt 0.419706 0.080294
vt 0.449553 0.116663
vt 0.471731 0.158156
vt 0.485388 0.203178
vt 0.490000 0.250000
vt 0.485388 0.296822
vt 0.471731 0.341844
vt 0.449553 0.383337
vt 0.419706 0.419706
vt 0.383337 0.449553
vt 0.341844 0.471731
vt 0.031250 1.000000
vt 0.031250 0.500000
vt 0.000000 1.000000
vt 0.000000 0.500000
vt 0.750000 0.490000
vt 0.796822 0.485388
vt 0.841844 0.471731
vt 0.883337 0.449553
vt 0.919706 0.419706
vt 0.949553 0.383337
vt 0.971731 0.341844
vt 0.985388 0.296822
vt 0.990000 0.250000
vt 0.985388 0.203178
vt 0.971731 0.158156
vt 0.949553 0.116663
vt 0.919706 0.080294
vt 0.883337 0.050447
vt 0.841844 0.028269
vt 0.796822 0.014612
vt 0.750000 0.010000
vt 0.703178 0.014612
vt 0.658156 0.028269
vt 0.616663 0.050447
vt 0.580294 0.080294
vt 0.550447 0.116663
vt 0.528269 0.158156
vt 0.514612 0.203178
vt 0.510000 0.250000
vt 0.514612 0.296822
vt 0.528269 0.341844
vt 0.550447 0.383337
vt 0.580294 0.419706
vt 0.616663 0.449553
vt 0.658156 0.471731
vt 0.703178 0.485388
s 0
f 1/1/1 2/2/1 4/3/1 3/4/1
f 3/4/2 4/3/2 6/5/2 5/6/2
f 5/6/3 6/5/3 8/7/3 7/8/3
f 7/8/4 8/7/4 10/9/4 9/10/4
f 9/10/5 10/9/5 12/11/5 11/12/5
f 11/12/6 12/11/6 14/13/6 13/14/6
f 13/14/7 14/13/7 16/15/7 15/16/7
f 15/16/8 16/15/8 18/17/8 17/18/8
f 17/18/9 18/17/9 20/19/9 19/20/9
f 19/20/10 20/19/10 22/21/10 21/22/10
f 21/22/11 22/21/11 24/23/11 23/24/11
f 23/24/12 24/23/12 26/25/12 25/26/12
f 25/26/13 26/25/13 28/27/13 27/28/13
f 27/28/14 28/27/14 30/29/14 29/30/14
f 29/30/15 30/29/15 32/31/15 31/32/15
f 31/32/16 32/31/16 34/33/16 33/34/16
f 33/34/17 34/33/17 36/35/17 35/36/17
f 35/36/18 36/35/18 38/37/18 37/38/18
f 37/38/19 38/37/19 40/39/19 39/40/19
f 39/40/20 40/39/20 42/41/20 41/42/20
f 41/42/21 42/41/21 44/43/21 43/44/21
f 43/44/22 44/43/22 46/45/22 45/46/22
f 45/46/23 46/45/23 48/47/23 47/48/23
f 47/48/24 48/47/24 50/49/24 49/50/24
f 49/50/25 50/49/25 52/51/25 51/52/25
f 51/52/26 52/51/26 54/53/26 53/54/26
f 53/54/27 54/53/27 56/55/27 55/56/27
f 55/56/28 56/55/28 58/57/28 57/58/28
f 57/58/29 58/57/29 60/59/29 59/60/29
f 59/60/30 60/59/30 62/61/30 61/62/30
f 4/63/31 2/64/31 64/65/31 62/66/31 60/67/31 58/68/31 56/69/31 54/70/31 52/71/31 50/72/31 48/73/31 46/74/31 44/75/31 42/76/31 40/77/31 38/78/31 36/79/31 34/80/31 32/81/31 30/82/31 28/83/31 26/84/31 24/85/31 22/86/31 20/87/31 18/88/31 16/89/31 14/90/31 12/91/31 10/92/31 8/93/31 6/94/31
f 61/62/32 62/61/32 64/95/32 63/96/32
f 63/96/33 64/95/33 2/97/33 1/98/33
f 1/99/34 3/100/34 5/101/34 7/102/34 9/103/34 11/104/34 13/105/34 15/106/34 17/107/34 19/108/34 21/109/34 23/110/34 25/111/34 27/112/34 29/113/34 31/114/34 33/115/34 35/116/34 37/117/34 39/118/34 41/119/34 43/120/34 45/121/34 47/122/34 49/123/34 51/124/34 53/125/34 55/126/34 57/127/34 59/128/34 61/129/34 63/130/34
o Bottom
v 0.000000 -0.136984 -0.123089
v 0.000000 -0.201242 -0.088742
v 0.000000 -0.216849 -0.069724
v 0.000000 -0.238000 0.000000
v 0.024484 -0.112500 -0.123089
v 0.024013 -0.136984 -0.120723
v 0.022620 -0.160527 -0.113719
v 0.020358 -0.182224 -0.102344
v 0.017313 -0.201242 -0.087037
v 0.013602 -0.216849 -0.068384
v 0.009370 -0.228447 -0.047104
v 0.004777 -0.235589 -0.024013
v 0.048027 -0.112500 -0.115947
v 0.047104 -0.136984 -0.113719
v 0.044371 -0.160527 -0.107121
v 0.039933 -0.182224 -0.096406
v 0.033960 -0.201242 -0.081987
v 0.026682 -0.216849 -0.064417
v 0.018379 -0.228447 -0.044371
v 0.009370 -0.235589 -0.022620
v 0.069724 -0.112500 -0.104349
v 0.068384 -0.136984 -0.102344
v 0.064417 -0.160527 -0.096406
v 0.057973 -0.182224 -0.086763
v 0.049302 -0.201242 -0.073786
v 0.038737 -0.216849 -0.057973
v 0.026682 -0.228447 -0.039933
v 0.013602 -0.235589 -0.020358
v 0.088742 -0.112500 -0.088742
v 0.087037 -0.136984 -0.087037
v 0.081987 -0.160527 -0.081987
v 0.073786 -0.182224 -0.073786
v 0.062750 -0.201242 -0.062750
v 0.049302 -0.216849 -0.049302
v 0.033960 -0.228447 -0.033960
v 0.017313 -0.235589 -0.017313
v 0.104349 -0.112500 -0.069724
v 0.102344 -0.136984 -0.068384
v 0.096406 -0.160527 -0.064417
v 0.086763 -0.182224 -0.057973
v 0.073786 -0.201242 -0.049302
v 0.057973 -0.216849 -0.038737
v 0.039933 -0.228447 -0.026682
v 0.020358 -0.235589 -0.013602
v 0.115947 -0.112500 -0.048027
v 0.113719 -0.136984 -0.047104
v 0.107121 -0.160527 -0.044371
v 0.096406 -0.182224 -0.039933
v 0.081987 -0.201242 -0.033960
v 0.064417 -0.216849 -0.026682
v 0.044371 -0.228447 -0.018379
v 0.022620 -0.235589 -0.009370
v 0.123089 -0.112500 -0.024484
v 0.120723 -0.136984 -0.024013
v 0.113719 -0.160527 -0.022620
v 0.102344 -0.182224 -0.020358
v 0.087037 -0.201242 -0.017313
v 0.068384 -0.216849 -0.013602
v 0.047104 -0.228447 -0.009370
v 0.024013 -0.235589 -0.004777
v 0.125500 -0.112500 0.000000
v 0.123089 -0.136984 0.000000
v 0.115947 -0.160527 0.000000
v 0.104349 -0.182224 -0.000000
v 0.088742 -0.201242 0.000000
v 0.069724 -0.216849 0.000000
v 0.048027 -0.228447 0.000000
v 0.024484 -0.235589 0.000000
v 0.123089 -0.112500 0.024484
v 0.120723 -0.136984 0.024013
v 0.113719 -0.160527 0.022620
v 0.102344 -0.182224 0.020358
v 0.087037 -0.201242 0.017313
v 0.068384 -0.216849 0.013602
v 0.047104 -0.228447 0.009370
v 0.024013 -0.235589 0.004777
v 0.115947 -0.112500 0.048027
v 0.113719 -0.136984 0.047104
v 0.107121 -0.160527 0.044371
v 0.096406 -0.182224 0.039933
v 0.081987 -0.201242 0.033960
v 0.064417 -0.216849 0.026682
v 0.044371 -0.228447 0.018379
v 0.022620 -0.235589 0.009370
v 0.104349 -0.112500 0.069724
v 0.102344 -0.136984 0.068384
v 0.096406 -0.160527 0.064417
v 0.086763 -0.182224 0.057973
v 0.073786 -0.201242 0.049302
v 0.057973 -0.216849 0.038737
v 0.039933 -0.228447 0.026682
v 0.020358 -0.235589 0.013602
v 0.088742 -0.112500 0.088742
v 0.087037 -0.136984 0.087037
v 0.081987 -0.160527 0.081987
v 0.073786 -0.182224 0.073786
v 0.062750 -0.201242 0.062750
v 0.049302 -0.216849 0.049302
v 0.033960 -0.228447 0.033960
v 0.017313 -0.235589 0.017313
v 0.069724 -0.112500 0.104349
v 0.068384 -0.136984 0.102344
v 0.064417 -0.160527 0.096406
v 0.057973 -0.182224 0.086763
v 0.049302 -0.201242 0.073786
v 0.038737 -0.216849 0.057973
v 0.026682 -0.228447 0.039933
v 0.013602 -0.235589 0.020358
v 0.048027 -0.112500 0.115947
v 0.047104 -0.136984 0.113719
v 0.044371 -0.160527 0.107121
v 0.039933 -0.182224 0.096406
v 0.033960 -0.201242 0.081987
v 0.026682 -0.216849 0.064417
v 0.018379 -0.228447 0.044371
v 0.009370 -0.235589 0.022620
v 0.024484 -0.112500 0.123088
v 0.024013 -0.136984 0.120723
v 0.022620 -0.160527 0.113719
v 0.020358 -0.182224 0.102344
v 0.017313 -0.201242 0.087037
v 0.013602 -0.216849 0.068384
v 0.009370 -0.228447 0.047104
v 0.004777 -0.235589 0.024013
v -0.000000 -0.112500 0.125500
v -0.000000 -0.136984 0.123089
v -0.000000 -0.160527 0.115947
v -0.000000 -0.182224 0.104349
v -0.000000 -0.201242 0.088742
v -0.000000 -0.216849 0.069724
v -0.000000 -0.228447 0.048027
v -0.000000 -0.235589 0.024484
v -0.024484 -0.112500 0.123088
v -0.024013 -0.136984 0.120723
v -0.022620 -0.160527 0.113719
v -0.020358 -0.182224 0.102344
v -0.017313 -0.201242 0.087037
v -0.013602 -0.216849 0.068384
v -0.009370 -0.228447 0.047104
v -0.004777 -0.235589 0.024013
v -0.048027 -0.112500 0.115947
v -0.047104 -0.136984 0.113719
v -0.044371 -0.160527 0.107121
v -0.039933 -0.182224 0.096406
v -0.033960 -0.201242 0.081987
v -0.026682 -0.216849 0.064417
v -0.018379 -0.228447 0.044371
v -0.009370 -0.235589 0.022620
v -0.069724 -0.112500 0.104349
v -0.068384 -0.136984 0.102344
v -0.064417 -0.160527 0.096406
v -0.057973 -0.182224 0.086763
v -0.049302 -0.201242 0.073786
v -0.038737 -0.216849 0.057973
v -0.026682 -0.228447 0.039933
v -0.013602 -0.235589 0.020358
v -0.088742 -0.112500 0.088742
v -0.087037 -0.136984 0.087037
v -0.081987 -0.160527 0.081987
v -0.073786 -0.182224 0.073786
v -0.062750 -0.201242 0.062750
v -0.049302 -0.216849 0.049302
v -0.033960 -0.228447 0.033960
v -0.017313 -0.235589 0.017313
v -0.104349 -0.112500 0.069724
v -0.102344 -0.136984 0.068384
v -0.096406 -0.160527 0.064417
v -0.086763 -0.182224 0.057973
v -0.073786 -0.201242 0.049302
v -0.057973 -0.216849 0.038737
v -0.039933 -0.228447 0.026682
v -0.020358 -0.235589 0.013602
v -0.115947 -0.112500 0.048027
v -0.113719 -0.136984 0.047104
v -0.107121 -0.160527 0.044371
v -0.096406 -0.182224 0.039933
v -0.081987 -0.201242 0.033960
v -0.064417 -0.216849 0.026682
v -0.044371 -0.228447 0.018379
v -0.022620 -0.235589 0.009370
v -0.123088 -0.112500 0.024484
v -0.120723 -0.136984 0.024013
v -0.113719 -0.160527 0.022620
v -0.102344 -0.182224 0.020358
v -0.087037 -0.201242 0.017313
v -0.068384 -0.216849 0.013602
v -0.047104 -0.228447 0.009370
v -0.024013 -0.235589 0.004777
v -0.125500 -0.112500 -0.000000
v -0.123088 -0.136984 -0.000000
v -0.115947 -0.160527 -0.000000
v -0.104349 -0.182224 -0.000000
v -0.088742 -0.201242 -0.000000
v -0.069724 -0.216849 -0.000000
v -0.048027 -0.228447 -0.000000
v -0.024484 -0.235589 -0.000000
v -0.123088 -0.112500 -0.024484
v -0.120723 -0.136984 -0.024013
v -0.113719 -0.160527 -0.022620
v -0.102344 -0.182224 -0.020358
v -0.087037 -0.201242 -0.017313
v -0.068384 -0.216849 -0.013602
v -0.047104 -0.228447 -0.009370
v -0.024013 -0.235589 -0.004777
v -0.115947 -0.112500 -0.048027
v -0.113719 -0.136984 -0.047104
v -0.107121 -0.160527 -0.044371
v -0.096406 -0.182224 -0.039933
v -0.081987 -0.201242 -0.033960
v -0.064417 -0.216849 -0.026682
v -0.044371 -0.228447 -0.018379
v -0.022620 -0.235589 -0.009370
v -0.104349 -0.112500 -0.069724
v -0.102344 -0.136984 -0.068384
v -0.096406 -0.160527 -0.064417
v -0.086763 -0.182224 -0.057973
v -0.073786 -0.201242 -0.049302
v -0.057973 -0.216849 -0.038737
v -0.039933 -0.228447 -0.026682
v -0.020358 -0.235589 -0.013602
v -0.088742 -0.112500 -0.088742
v -0.087037 -0.136984 -0.087037
v -0.081987 -0.160527 -0.081987
v -0.073786 -0.182224 -0.073786
v -0.062750 -0.201242 -0.062750
v -0.049302 -0.216849 -0.049302
v -0.033960 -0.228447 -0.033960
v -0.017313 -0.235589 -0.017313
v -0.069724 -0.112500 -0.104349
v -0.068384 -0.136984 -0.102344
v -0.064417 -0.160527 -0.096406
v -0.057973 -0.182224 -0.086763
v -0.049302 -0.201242 -0.073786
v -0.038737 -0.216849 -0.057973
v -0.026682 -0.228447 -0.039933
v -0.013602 -0.235589 -0.020358
v -0.048027 -0.112500 -0.115947
v -0.047104 -0.136984 -0.113719
v -0.044371 -0.160527 -0.107121
v -0.039933 -0.182224 -0.096406
v -0.033960 -0.201242 -0.081987
v -0.026682 -0.216849 -0.064417
v -0.018379 -0.228447 -0.044371
v -0.009370 -0.235589 -0.022620
v -0.024484 -0.112500 -0.123088
v -0.024013 -0.136984 -0.120723
v -0.022620 -0.160527 -0.113719
v -0.020358 -0.182224 -0.102344
v -0.017313 -0.201242 -0.087037
v -0.013602 -0.216849 -0.068384
v -0.009370 -0.228447 -0.047104
v -0.004777 -0.235589 -0.024013
v 0.000000 -0.112500 -0.125500
v 0.000000 -0.160527 -0.115947
v 0.000000 -0.182224 -0.104349
v 0.000000 -0.228447 -0.048027
v 0.000000 -0.235589 -0.024484
vn 0.0097 -0.9951 -0.0980
vn 0.0975 -0.0975 -0.9904
vn 0.0938 -0.2890 -0.9527
vn 0.0865 -0.4696 -0.8786
vn 0.0759 -0.6326 -0.7708
vn 0.0624 -0.7715 -0.6332
vn 0.0464 -0.8810 -0.4709
vn 0.0286 -0.9565 -0.2902
vn 0.0846 -0.9565 -0.2790
vn 0.0286 -0.9951 -0.0942
vn 0.2889 -0.0975 -0.9524
vn 0.2779 -0.2890 -0.9161
vn 0.2563 -0.4696 -0.8448
vn 0.2248 -0.6326 -0.7412
vn 0.1847 -0.7715 -0.6088
vn 0.1374 -0.8810 -0.4528
vn 0.4162 -0.4696 -0.7786
vn 0.3651 -0.6326 -0.6831
vn 0.2999 -0.7715 -0.5611
vn 0.2230 -0.8810 -0.4173
vn 0.1374 -0.9565 -0.2571
vn 0.0464 -0.9951 -0.0869
vn 0.4691 -0.0975 -0.8777
vn 0.4513 -0.2890 -0.8443
vn 0.1850 -0.9565 -0.2254
vn 0.0625 -0.9951 -0.0761
vn 0.6314 -0.0975 -0.7693
vn 0.6073 -0.2890 -0.7400
vn 0.5601 -0.4696 -0.6825
vn 0.4913 -0.6326 -0.5987
vn 0.4036 -0.7715 -0.4918
vn 0.3002 -0.8810 -0.3658
vn 0.5987 -0.6326 -0.4913
vn 0.4918 -0.7715 -0.4036
vn 0.3658 -0.8810 -0.3002
vn 0.2254 -0.9565 -0.1850
vn 0.0761 -0.9951 -0.0625
vn 0.7693 -0.0975 -0.6314
vn 0.7400 -0.2890 -0.6073
vn 0.6825 -0.4696 -0.5601
vn 0.0869 -0.9951 -0.0464
vn 0.8777 -0.0975 -0.4691
vn 0.8443 -0.2890 -0.4513
vn 0.7786 -0.4696 -0.4162
vn 0.6831 -0.6326 -0.3651
vn 0.5611 -0.7715 -0.2999
vn 0.4173 -0.8810 -0.2230
vn 0.2571 -0.9565 -0.1374
vn 0.7412 -0.6326 -0.2248
vn 0.6088 -0.7715 -0.1847
vn 0.4528 -0.8810 -0.1374
vn 0.2790 -0.9565 -0.0846
vn 0.0942 -0.9951 -0.0286
vn 0.9524 -0.0975 -0.2889
vn 0.9161 -0.2890 -0.2779
vn 0.8448 -0.4696 -0.2563
vn 0.0980 -0.9951 -0.0097
vn 0.9904 -0.0975 -0.0975
vn 0.9527 -0.2890 -0.0938
vn 0.8786 -0.4696 -0.0865
vn 0.7708 -0.6326 -0.0759
vn 0.6332 -0.7715 -0.0624
vn 0.4709 -0.8810 -0.0464
vn 0.2902 -0.9565 -0.0286
vn 0.6332 -0.7715 0.0624
vn 0.4709 -0.8810 0.0464
vn 0.2902 -0.9565 0.0286
vn 0.0980 -0.9951 0.0097
vn 0.9904 -0.0975 0.0975
vn 0.9527 -0.2890 0.0938
vn 0.8786 -0.4696 0.0865
vn 0.7708 -0.6326 0.0759
vn 0.9161 -0.2890 0.2779
vn 0.8448 -0.4696 0.2563
vn 0.7412 -0.6326 0.2248
vn 0.6088 -0.7715 0.1847
vn 0.4528 -0.8810 0.1374
vn 0.2790 -0.9565 0.0846
vn 0.0942 -0.9951 0.0286
vn 0.9524 -0.0975 0.2889
vn 0.4173 -0.8810 0.2231
vn 0.2571 -0.9565 0.1374
vn 0.0869 -0.9951 0.0464
vn 0.8777 -0.0975 0.4691
vn 0.8443 -0.2890 0.4513
vn 0.7786 -0.4696 0.4162
vn 0.6831 -0.6326 0.3651
vn 0.5611 -0.7715 0.2999
vn 0.7400 -0.2890 0.6073
vn 0.6825 -0.4696 0.5601
vn 0.5987 -0.6326 0.4913
vn 0.4918 -0.7715 0.4036
vn 0.3658 -0.8810 0.3002
vn 0.2254 -0.9565 0.1850
vn 0.0761 -0.9951 0.0625
vn 0.7693 -0.0975 0.6314
vn 0.3002 -0.8810 0.3658
vn 0.1850 -0.9565 0.2254
vn 0.0625 -0.9951 0.0761
vn 0.6314 -0.0975 0.7693
vn 0.6073 -0.2890 0.7400
vn 0.5601 -0.4696 0.6825
vn 0.4913 -0.6326 0.5987
vn 0.4036 -0.7715 0.4918
vn 0.4162 -0.4696 0.7786
vn 0.3651 -0.6326 0.6831
vn 0.2999 -0.7715 0.5611
vn 0.2231 -0.8810 0.4173
vn 0.1374 -0.9565 0.2571
vn 0.0464 -0.9951 0.0869
vn 0.4691 -0.0975 0.8777
vn 0.4513 -0.2890 0.8443
vn 0.0846 -0.9565 0.2790
vn 0.0286 -0.9951 0.0942
vn 0.2889 -0.0975 0.9524
vn 0.2779 -0.2890 0.9161
vn 0.2563 -0.4696 0.8448
vn 0.2248 -0.6326 0.7412
vn 0.1847 -0.7715 0.6088
vn 0.1374 -0.8810 0.4528
vn 0.0865 -0.4696 0.8786
vn 0.0759 -0.6326 0.7708
vn 0.0624 -0.7715 0.6332
vn 0.0464 -0.8810 0.4709
vn 0.0286 -0.9565 0.2902
vn 0.0097 -0.9951 0.0980
vn 0.0975 -0.0975 0.9904
vn 0.0938 -0.2890 0.9527
vn -0.0286 -0.9565 0.2902
vn -0.0097 -0.9951 0.0980
vn -0.0975 -0.0975 0.9904
vn -0.0938 -0.2890 0.9527
vn -0.0865 -0.4696 0.8786
vn -0.0759 -0.6326 0.7708
vn -0.0624 -0.7715 0.6332
vn -0.0464 -0.8810 0.4709
vn -0.2248 -0.6326 0.7412
vn -0.1847 -0.7715 0.6088
vn -0.1374 -0.8810 0.4528
vn -0.0846 -0.9565 0.2790
vn -0.0286 -0.9951 0.0942
vn -0.2889 -0.0975 0.9524
vn -0.2779 -0.2890 0.9161
vn -0.2563 -0.4696 0.8448
vn -0.0464 -0.9951 0.0869
vn -0.4691 -0.0975 0.8777
vn -0.4513 -0.2890 0.8443
vn -0.4162 -0.4696 0.7786
vn -0.3651 -0.6326 0.6831
vn -0.2999 -0.7715 0.5611
vn -0.2231 -0.8810 0.4173
vn -0.1374 -0.9565 0.2571
vn -0.4036 -0.7715 0.4918
vn -0.3002 -0.8810 0.3658
vn -0.1850 -0.9565 0.2254
vn -0.0625 -0.9951 0.0761
vn -0.6314 -0.0975 0.7693
vn -0.6073 -0.2890 0.7400
vn -0.5601 -0.4696 0.6825
vn -0.4913 -0.6326 0.5987
vn -0.7693 -0.0975 0.6314
vn -0.7400 -0.2890 0.6073
vn -0.6825 -0.4696 0.5601
vn -0.5987 -0.6326 0.4913
vn -0.4918 -0.7715 0.4036
vn -0.3658 -0.8810 0.3002
vn -0.2254 -0.9565 0.1850
vn -0.0761 -0.9951 0.0625
vn -0.5611 -0.7715 0.2999
vn -0.4173 -0.8810 0.2230
vn -0.2571 -0.9565 0.1374
vn -0.0869 -0.9951 0.0464
vn -0.8777 -0.0975 0.4691
vn -0.8443 -0.2890 0.4513
vn -0.7786 -0.4696 0.4162
vn -0.6831 -0.6326 0.3651
vn -0.9161 -0.2890 0.2779
vn -0.8448 -0.4696 0.2563
vn -0.7412 -0.6326 0.2248
vn -0.6088 -0.7715 0.1847
vn -0.4528 -0.8810 0.1374
vn -0.2790 -0.9565 0.0846
vn -0.0942 -0.9951 0.0286
vn -0.9524 -0.0975 0.2889
vn -0.4709 -0.8810 0.0464
vn -0.2902 -0.9565 0.0286
vn -0.0980 -0.9951 0.0097
vn -0.9904 -0.0975 0.0975
vn -0.9527 -0.2890 0.0938
vn -0.8786 -0.4696 0.0865
vn -0.7708 -0.6326 0.0759
vn -0.6332 -0.7715 0.0624
vn -0.9527 -0.2890 -0.0938
vn -0.8786 -0.4696 -0.0865
vn -0.7708 -0.6326 -0.0759
vn -0.6332 -0.7715 -0.0624
vn -0.4709 -0.8810 -0.0464
vn -0.2902 -0.9565 -0.0286
vn -0.0980 -0.9951 -0.0097
vn -0.9904 -0.0975 -0.0975
vn -0.4528 -0.8810 -0.1374
vn -0.2790 -0.9565 -0.0846
vn -0.0942 -0.9951 -0.0286
vn -0.9524 -0.0975 -0.2889
vn -0.9161 -0.2890 -0.2779
vn -0.8448 -0.4696 -0.2563
vn -0.7412 -0.6326 -0.2248
vn -0.6088 -0.7715 -0.1847
vn -0.7786 -0.4696 -0.4162
vn -0.6831 -0.6326 -0.3651
vn -0.5611 -0.7715 -0.2999
vn -0.4173 -0.8810 -0.2231
vn -0.2571 -0.9565 -0.1374
vn -0.0869 -0.9951 -0.0464
vn -0.8777 -0.0975 -0.4691
vn -0.8443 -0.2890 -0.4513
vn -0.2254 -0.9565 -0.1850
vn -0.0761 -0.9951 -0.0625
vn -0.7693 -0.0975 -0.6314
vn -0.7400 -0.2890 -0.6073
vn -0.6825 -0.4696 -0.5601
vn -0.5987 -0.6326 -0.4913
vn -0.4918 -0.7715 -0.4036
vn -0.3658 -0.8810 -0.3002
vn -0.4913 -0.6326 -0.5987
vn -0.4036 -0.7715 -0.4918
vn -0.3002 -0.8810 -0.3658
vn -0.1850 -0.9565 -0.2254
vn -0.0625 -0.9951 -0.0761
vn -0.6314 -0.0975 -0.7693
vn -0.6073 -0.2890 -0.7400
vn -0.5601 -0.4696 -0.6825
vn -0.0464 -0.9951 -0.0869
vn -0.4691 -0.0975 -0.8777
vn -0.4513 -0.2890 -0.8443
vn -0.4162 -0.4696 -0.7786
vn -0.3651 -0.6326 -0.6831
vn -0.2999 -0.7715 -0.5611
vn -0.2230 -0.8810 -0.4173
vn -0.1374 -0.9565 -0.2571
vn -0.2248 -0.6326 -0.7412
vn -0.1847 -0.7715 -0.6088
vn -0.1374 -0.8810 -0.4528
vn -0.0846 -0.9565 -0.2790
vn -0.0286 -0.9951 -0.0942
vn -0.2889 -0.0975 -0.9524
vn -0.2779 -0.2890 -0.9161
vn -0.2563 -0.4696 -0.8448
vn -0.0097 -0.9951 -0.0980
vn -0.0976 -0.0975 -0.9904
vn -0.0938 -0.2890 -0.9527
vn -0.0865 -0.4696 -0.8786
vn -0.0759 -0.6326 -0.7708
vn -0.0624 -0.7715 -0.6332
vn -0.0464 -0.8810 -0.4709
vn -0.0286 -0.9565 -0.2902
vt 0.734375 0.000000
vt 0.750000 0.062500
vt 0.718750 0.062500
vt 0.750000 0.437500
vt 0.750000 0.500000
vt 0.718750 0.500000
vt 0.718750 0.437500
vt 0.750000 0.375000
vt 0.718750 0.375000
vt 0.750000 0.312500
vt 0.718750 0.312500
vt 0.750000 0.250000
vt 0.718750 0.250000
vt 0.750000 0.187500
vt 0.718750 0.187500
vt 0.750000 0.125000
vt 0.718750 0.125000
vt 0.687500 0.125000
vt 0.687500 0.062500
vt 0.703125 0.000000
vt 0.687500 0.500000
vt 0.687500 0.437500
vt 0.687500 0.375000
vt 0.687500 0.312500
vt 0.687500 0.250000
vt 0.687500 0.187500
vt 0.656250 0.375000
vt 0.656250 0.312500
vt 0.656250 0.250000
vt 0.656250 0.187500
vt 0.656250 0.125000
vt 0.656250 0.062500
vt 0.671875 0.000000
vt 0.656250 0.500000
vt 0.656250 0.437500
vt 0.625000 0.125000
vt 0.625000 0.062500
vt 0.640625 0.000000
vt 0.625000 0.500000
vt 0.625000 0.437500
vt 0.625000 0.375000
vt 0.625000 0.312500
vt 0.625000 0.250000
vt 0.625000 0.187500
vt 0.593750 0.312500
vt 0.593750 0.250000
vt 0.593750 0.187500
vt 0.593750 0.125000
vt 0.593750 0.062500
vt 0.609375 0.000000
vt 0.593750 0.500000
vt 0.593750 0.437500
vt 0.593750 0.375000
vt 0.578125 0.000000
vt 0.562500 0.062500
vt 0.562500 0.500000
vt 0.562500 0.437500
vt 0.562500 0.375000
vt 0.562500 0.312500
vt 0.562500 0.250000
vt 0.562500 0.187500
vt 0.562500 0.125000
vt 0.531250 0.312500
vt 0.531250 0.250000
vt 0.531250 0.187500
vt 0.531250 0.125000
vt 0.531250 0.062500
vt 0.546875 0.000000
vt 0.531250 0.500000
vt 0.531250 0.437500
vt 0.531250 0.375000
vt 0.515625 0.000000
vt 0.500000 0.062500
vt 0.500000 0.500000
vt 0.500000 0.437500
vt 0.500000 0.375000
vt 0.500000 0.312500
vt 0.500000 0.250000
vt 0.500000 0.187500
vt 0.500000 0.125000
vt 0.468750 0.250000
vt 0.468750 0.187500
vt 0.468750 0.125000
vt 0.468750 0.062500
vt 0.484375 0.000000
vt 0.468750 0.500000
vt 0.468750 0.437500
vt 0.468750 0.375000
vt 0.468750 0.312500
vt 0.437500 0.437500
vt 0.437500 0.375000
vt 0.437500 0.312500
vt 0.437500 0.250000
vt 0.437500 0.187500
vt 0.437500 0.125000
vt 0.437500 0.062500
vt 0.453125 0.000000
vt 0.437500 0.500000
vt 0.406250 0.187500
vt 0.406250 0.125000
vt 0.406250 0.062500
vt 0.421875 0.000000
vt 0.406250 0.500000
vt 0.406250 0.437500
vt 0.406250 0.375000
vt 0.406250 0.312500
vt 0.406250 0.250000
vt 0.375000 0.437500
vt 0.375000 0.375000
vt 0.375000 0.312500
vt 0.375000 0.250000
vt 0.375000 0.187500
vt 0.375000 0.125000
vt 0.375000 0.062500
vt 0.390625 0.000000
vt 0.375000 0.500000
vt 0.343750 0.187500
vt 0.343750 0.125000
vt 0.343750 0.062500
vt 0.359375 0.000000
vt 0.343750 0.500000
vt 0.343750 0.437500
vt 0.343750 0.375000
vt 0.343750 0.312500
vt 0.343750 0.250000
vt 0.312500 0.375000
vt 0.312500 0.312500
vt 0.312500 0.250000
vt 0.312500 0.187500
vt 0.312500 0.125000
vt 0.312500 0.062500
vt 0.328125 0.000000
vt 0.312500 0.500000
vt 0.312500 0.437500
vt 0.281250 0.125000
vt 0.281250 0.062500
vt 0.296875 0.000000
vt 0.281250 0.500000
vt 0.281250 0.437500
vt 0.281250 0.375000
vt 0.281250 0.312500
vt 0.281250 0.250000
vt 0.281250 0.187500
vt 0.250000 0.375000
vt 0.250000 0.312500
vt 0.250000 0.250000
vt 0.250000 0.187500
vt 0.250000 0.125000
vt 0.250000 0.062500
vt 0.265625 0.000000
vt 0.250000 0.500000
vt 0.250000 0.437500
vt 0.218750 0.125000
vt 0.218750 0.062500
vt 0.234375 0.000000
vt 0.218750 0.500000
vt 0.218750 0.437500
vt 0.218750 0.375000
vt 0.218750 0.312500
vt 0.218750 0.250000
vt 0.218750 0.187500
vt 0.187500 0.312500
vt 0.187500 0.250000
vt 0.187500 0.187500
vt 0.187500 0.125000
vt 0.187500 0.062500
vt 0.203125 0.000000
vt 0.187500 0.500000
vt 0.187500 0.437500
vt 0.187500 0.375000
vt 0.171875 0.000000
vt 0.156250 0.062500
vt 0.156250 0.500000
vt 0.156250 0.437500
vt 0.156250 0.375000
vt 0.156250 0.312500
vt 0.156250 0.250000
vt 0.156250 0.187500
vt 0.156250 0.125000
vt 0.125000 0.250000
vt 0.125000 0.187500
vt 0.125000 0.125000
vt 0.125000 0.062500
vt 0.140625 0.000000
vt 0.125000 0.500000
vt 0.125000 0.437500
vt 0.125000 0.375000
vt 0.125000 0.312500
vt 0.093750 0.500000
vt 0.093750 0.437500
vt 0.093750 0.375000
vt 0.093750 0.312500
vt 0.093750 0.250000
vt 0.093750 0.187500
vt 0.093750 0.125000
vt 0.093750 0.062500
vt 0.109375 0.000000
vt 0.062500 0.250000
vt 0.062500 0.187500
vt 0.062500 0.125000
vt 0.062500 0.062500
vt 0.078125 0.000000
vt 0.062500 0.500000
vt 0.062500 0.437500
vt 0.062500 0.375000
vt 0.062500 0.312500
vt 0.031250 0.437500
vt 0.031250 0.375000
vt 0.031250 0.312500
vt 0.031250 0.250000
vt 0.031250 0.187500
vt 0.031250 0.125000
vt 0.031250 0.062500
vt 0.046875 0.000000
vt 0.031250 0.500000
vt 0.000000 0.187500
vt 0.000000 0.125000
vt 0.000000 0.062500
vt 0.015625 0.000000
vt 0.000000 0.500000
vt 0.000000 0.437500
vt 0.000000 0.375000
vt 0.000000 0.312500
vt 0.000000 0.250000
vt 1.000000 0.375000
vt 1.000000 0.437500
vt 0.968750 0.437500
vt 0.968750 0.375000
vt 1.000000 0.312500
vt 0.968750 0.312500
vt 1.000000 0.250000
vt 0.968750 0.250000
vt 1.000000 0.187500
vt 0.968750 0.187500
vt 1.000000 0.125000
vt 0.968750 0.125000
vt 1.000000 0.062500
vt 0.968750 0.062500
vt 0.984375 0.000000
vt 1.000000 0.500000
vt 0.968750 0.500000
vt 0.937500 0.187500
vt 0.937500 0.125000
vt 0.937500 0.062500
vt 0.953125 0.000000
vt 0.937500 0.500000
vt 0.937500 0.437500
vt 0.937500 0.375000
vt 0.937500 0.312500
vt 0.937500 0.250000
vt 0.906250 0.375000
vt 0.906250 0.312500
vt 0.906250 0.250000
vt 0.906250 0.187500
vt 0.906250 0.125000
vt 0.906250 0.062500
vt 0.921875 0.000000
vt 0.906250 0.500000
vt 0.906250 0.437500
vt 0.875000 0.125000
vt 0.875000 0.062500
vt 0.890625 0.000000
vt 0.875000 0.500000
vt 0.875000 0.437500
vt 0.875000 0.375000
vt 0.875000 0.312500
vt 0.875000 0.250000
vt 0.875000 0.187500
vt 0.843750 0.312500
vt 0.843750 0.250000
vt 0.843750 0.187500
vt 0.843750 0.125000
vt 0.843750 0.062500
vt 0.859375 0.000000
vt 0.843750 0.500000
vt 0.843750 0.437500
vt 0.843750 0.375000
vt 0.828125 0.000000
vt 0.812500 0.062500
vt 0.812500 0.500000
vt 0.812500 0.437500
vt 0.812500 0.375000
vt 0.812500 0.312500
vt 0.812500 0.250000
vt 0.812500 0.187500
vt 0.812500 0.125000
vt 0.781250 0.312500
vt 0.781250 0.250000
vt 0.781250 0.187500
vt 0.781250 0.125000
vt 0.781250 0.062500
vt 0.796875 0.000000
vt 0.781250 0.500000
vt 0.781250 0.437500
vt 0.781250 0.375000
vt 0.765625 0.000000
s 0
f 68/131/35 321/132/35 76/133/35
f 65/134/36 317/135/36 69/136/36 70/137/36
f 318/138/37 65/134/37 70/137/37 71/139/37
f 319/140/38 318/138/38 71/139/38 72/141/38
f 66/142/39 319/140/39 72/141/39 73/143/39
f 67/144/40 66/142/40 73/143/40 74/145/40
f 320/146/41 67/144/41 74/145/41 75/147/41
f 321/132/42 320/146/42 75/147/42 76/133/42
f 76/133/43 75/147/43 83/148/43 84/149/43
f 68/150/44 76/133/44 84/149/44
f 70/137/45 69/136/45 77/151/45 78/152/45
f 71/139/46 70/137/46 78/152/46 79/153/46
f 72/141/47 71/139/47 79/153/47 80/154/47
f 73/143/48 72/141/48 80/154/48 81/155/48
f 74/145/49 73/143/49 81/155/49 82/156/49
f 75/147/50 74/145/50 82/156/50 83/148/50
f 80/154/51 79/153/51 87/157/51 88/158/51
f 81/155/52 80/154/52 88/158/52 89/159/52
f 82/156/53 81/155/53 89/159/53 90/160/53
f 83/148/54 82/156/54 90/160/54 91/161/54
f 84/149/55 83/148/55 91/161/55 92/162/55
f 68/163/56 84/149/56 92/162/56
f 78/152/57 77/151/57 85/164/57 86/165/57
f 79/153/58 78/152/58 86/165/58 87/157/58
f 92/162/59 91/161/59 99/166/59 100/167/59
f 68/168/60 92/162/60 100/167/60
f 86/165/61 85/164/61 93/169/61 94/170/61
f 87/157/62 86/165/62 94/170/62 95/171/62
f 88/158/63 87/157/63 95/171/63 96/172/63
f 89/159/64 88/158/64 96/172/64 97/173/64
f 90/160/65 89/159/65 97/173/65 98/174/65
f 91/161/66 90/160/66 98/174/66 99/166/66
f 97/173/67 96/172/67 104/175/67 105/176/67
f 98/174/68 97/173/68 105/176/68 106/177/68
f 99/166/69 98/174/69 106/177/69 107/178/69
f 100/167/70 99/166/70 107/178/70 108/179/70
f 68/180/71 100/167/71 108/179/71
f 94/170/72 93/169/72 101/181/72 102/182/72
f 95/171/73 94/170/73 102/182/73 103/183/73
f 96/172/74 95/171/74 103/183/74 104/175/74
f 68/184/75 108/179/75 116/185/75
f 102/182/76 101/181/76 109/186/76 110/187/76
f 103/183/77 102/182/77 110/187/77 111/188/77
f 104/175/78 103/183/78 111/188/78 112/189/78
f 105/176/79 104/175/79 112/189/79 113/190/79
f 106/177/80 105/176/80 113/190/80 114/191/80
f 107/178/81 106/177/81 114/191/81 115/192/81
f 108/179/82 107/178/82 115/192/82 116/185/82
f 113/190/83 112/189/83 120/193/83 121/194/83
f 114/191/84 113/190/84 121/194/84 122/195/84
f 115/192/85 114/191/85 122/195/85 123/196/85
f 116/185/86 115/192/86 123/196/86 124/197/86
f 68/198/87 116/185/87 124/197/87
f 110/187/88 109/186/88 117/199/88 118/200/88
f 111/188/89 110/187/89 118/200/89 119/201/89
f 112/189/90 111/188/90 119/201/90 120/193/90
f 68/202/91 124/197/91 132/203/91
f 118/200/92 117/199/92 125/204/92 126/205/92
f 119/201/93 118/200/93 126/205/93 127/206/93
f 120/193/94 119/201/94 127/206/94 128/207/94
f 121/194/95 120/193/95 128/207/95 129/208/95
f 122/195/96 121/194/96 129/208/96 130/209/96
f 123/196/97 122/195/97 130/209/97 131/210/97
f 124/197/98 123/196/98 131/210/98 132/203/98
f 130/209/99 129/208/99 137/211/99 138/212/99
f 131/210/100 130/209/100 138/212/100 139/213/100
f 132/203/101 131/210/101 139/213/101 140/214/101
f 68/215/102 132/203/102 140/214/102
f 126/205/103 125/204/103 133/216/103 134/217/103
f 127/206/104 126/205/104 134/217/104 135/218/104
f 128/207/105 127/206/105 135/218/105 136/219/105
f 129/208/106 128/207/106 136/219/106 137/211/106
f 135/218/107 134/217/107 142/220/107 143/221/107
f 136/219/108 135/218/108 143/221/108 144/222/108
f 137/211/109 136/219/109 144/222/109 145/223/109
f 138/212/110 137/211/110 145/223/110 146/224/110
f 139/213/111 138/212/111 146/224/111 147/225/111
f 140/214/112 139/213/112 147/225/112 148/226/112
f 68/227/113 140/214/113 148/226/113
f 134/217/114 133/216/114 141/228/114 142/220/114
f 147/225/115 146/224/115 154/229/115 155/230/115
f 148/226/116 147/225/116 155/230/116 156/231/116
f 68/232/117 148/226/117 156/231/117
f 142/220/118 141/228/118 149/233/118 150/234/118
f 143/221/119 142/220/119 150/234/119 151/235/119
f 144/222/120 143/221/120 151/235/120 152/236/120
f 145/223/121 144/222/121 152/236/121 153/237/121
f 146/224/122 145/223/122 153/237/122 154/229/122
f 151/235/123 150/234/123 158/238/123 159/239/123
f 152/236/124 151/235/124 159/239/124 160/240/124
f 153/237/125 152/236/125 160/240/125 161/241/125
f 154/229/126 153/237/126 161/241/126 162/242/126
f 155/230/127 154/229/127 162/242/127 163/243/127
f 156/231/128 155/230/128 163/243/128 164/244/128
f 68/245/129 156/231/129 164/244/129
f 150/234/130 149/233/130 157/246/130 158/238/130
f 163/243/131 162/242/131 170/247/131 171/248/131
f 164/244/132 163/243/132 171/248/132 172/249/132
f 68/250/133 164/244/133 172/249/133
f 158/238/134 157/246/134 165/251/134 166/252/134
f 159/239/135 158/238/135 166/252/135 167/253/135
f 160/240/136 159/239/136 167/253/136 168/254/136
f 161/241/137 160/240/137 168/254/137 169/255/137
f 162/242/138 161/241/138 169/255/138 170/247/138
f 168/254/139 167/253/139 175/256/139 176/257/139
f 169/255/140 168/254/140 176/257/140 177/258/140
f 170/247/141 169/255/141 177/258/141 178/259/141
f 171/248/142 170/247/142 178/259/142 179/260/142
f 172/249/143 171/248/143 179/260/143 180/261/143
f 68/262/144 172/249/144 180/261/144
f 166/252/145 165/251/145 173/263/145 174/264/145
f 167/253/146 166/252/146 174/264/146 175/256/146
f 180/261/147 179/260/147 187/265/147 188/266/147
f 68/267/148 180/261/148 188/266/148
f 174/264/149 173/263/149 181/268/149 182/269/149
f 175/256/150 174/264/150 182/269/150 183/270/150
f 176/257/151 175/256/151 183/270/151 184/271/151
f 177/258/152 176/257/152 184/271/152 185/272/152
f 178/259/153 177/258/153 185/272/153 186/273/153
f 179/260/154 178/259/154 186/273/154 187/265/154
f 184/271/155 183/270/155 191/274/155 192/275/155
f 185/272/156 184/271/156 192/275/156 193/276/156
f 186/273/157 185/272/157 193/276/157 194/277/157
f 187/265/158 186/273/158 194/277/158 195/278/158
f 188/266/159 187/265/159 195/278/159 196/279/159
f 68/280/160 188/266/160 196/279/160
f 182/269/161 181/268/161 189/281/161 190/282/161
f 183/270/162 182/269/162 190/282/162 191/274/162
f 196/279/163 195/278/163 203/283/163 204/284/163
f 68/285/164 196/279/164 204/284/164
f 190/282/165 189/281/165 197/286/165 198/287/165
f 191/274/166 190/282/166 198/287/166 199/288/166
f 192/275/167 191/274/167 199/288/167 200/289/167
f 193/276/168 192/275/168 200/289/168 201/290/168
f 194/277/169 193/276/169 201/290/169 202/291/169
f 195/278/170 194/277/170 202/291/170 203/283/170
f 201/290/171 200/289/171 208/292/171 209/293/171
f 202/291/172 201/290/172 209/293/172 210/294/172
f 203/283/173 202/291/173 210/294/173 211/295/173
f 204/284/174 203/283/174 211/295/174 212/296/174
f 68/297/175 204/284/175 212/296/175
f 198/287/176 197/286/176 205/298/176 206/299/176
f 199/288/177 198/287/177 206/299/177 207/300/177
f 200/289/178 199/288/178 207/300/178 208/292/178
f 68/301/179 212/296/179 220/302/179
f 206/299/180 205/298/180 213/303/180 214/304/180
f 207/300/181 206/299/181 214/304/181 215/305/181
f 208/292/182 207/300/182 215/305/182 216/306/182
f 209/293/183 208/292/183 216/306/183 217/307/183
f 210/294/184 209/293/184 217/307/184 218/308/184
f 211/295/185 210/294/185 218/308/185 219/309/185
f 212/296/186 211/295/186 219/309/186 220/302/186
f 218/308/187 217/307/187 225/310/187 226/311/187
f 219/309/188 218/308/188 226/311/188 227/312/188
f 220/302/189 219/309/189 227/312/189 228/313/189
f 68/314/190 220/302/190 228/313/190
f 214/304/191 213/303/191 221/315/191 222/316/191
f 215/305/192 214/304/192 222/316/192 223/317/192
f 216/306/193 215/305/193 223/317/193 224/318/193
f 217/307/194 216/306/194 224/318/194 225/310/194
f 222/316/195 221/315/195 229/319/195 230/320/195
f 223/317/196 222/316/196 230/320/196 231/321/196
f 224/318/197 223/317/197 231/321/197 232/322/197
f 225/310/198 224/318/198 232/322/198 233/323/198
f 226/311/199 225/310/199 233/323/199 234/324/199
f 227/312/200 226/311/200 234/324/200 235/325/200
f 228/313/201 227/312/201 235/325/201 236/326/201
f 68/327/202 228/313/202 236/326/202
f 234/324/203 233/323/203 241/328/203 242/329/203
f 235/325/204 234/324/204 242/329/204 243/330/204
f 236/326/205 235/325/205 243/330/205 244/331/205
f 68/332/206 236/326/206 244/331/206
f 230/320/207 229/319/207 237/333/207 238/334/207
f 231/321/208 230/320/208 238/334/208 239/335/208
f 232/322/209 231/321/209 239/335/209 240/336/209
f 233/323/210 232/322/210 240/336/210 241/328/210
f 239/335/211 238/334/211 246/337/211 247/338/211
f 240/336/212 239/335/212 247/338/212 248/339/212
f 241/328/213 240/336/213 248/339/213 249/340/213
f 242/329/214 241/328/214 249/340/214 250/341/214
f 243/330/215 242/329/215 250/341/215 251/342/215
f 244/331/216 243/330/216 251/342/216 252/343/216
f 68/344/217 244/331/217 252/343/217
f 238/334/218 237/333/218 245/345/218 246/337/218
f 251/342/219 250/341/219 258/346/219 259/347/219
f 252/343/220 251/342/220 259/347/220 260/348/220
f 68/349/221 252/343/221 260/348/221
f 246/337/222 245/345/222 253/350/222 254/351/222
f 247/338/223 246/337/223 254/351/223 255/352/223
f 248/339/224 247/338/224 255/352/224 256/353/224
f 249/340/225 248/339/225 256/353/225 257/354/225
f 250/341/226 249/340/226 257/354/226 258/346/226
f 255/355/227 254/356/227 262/357/227 263/358/227
f 256/359/228 255/355/228 263/358/228 264/360/228
f 257/361/229 256/359/229 264/360/229 265/362/229
f 258/363/230 257/361/230 265/362/230 266/364/230
f 259/365/231 258/363/231 266/364/231 267/366/231
f 260/367/232 259/365/232 267/366/232 268/368/232
f 68/369/233 260/367/233 268/368/233
f 254/356/234 253/370/234 261/371/234 262/357/234
f 267/366/235 266/364/235 274/372/235 275/373/235
f 268/368/236 267/366/236 275/373/236 276/374/236
f 68/375/237 268/368/237 276/374/237
f 262/357/238 261/371/238 269/376/238 270/377/238
f 263/358/239 262/357/239 270/377/239 271/378/239
f 264/360/240 263/358/240 271/378/240 272/379/240
f 265/362/241 264/360/241 272/379/241 273/380/241
f 266/364/242 265/362/242 273/380/242 274/372/242
f 272/379/243 271/378/243 279/381/243 280/382/243
f 273/380/244 272/379/244 280/382/244 281/383/244
f 274/372/245 273/380/245 281/383/245 282/384/245
f 275/373/246 274/372/246 282/384/246 283/385/246
f 276/374/247 275/373/247 283/385/247 284/386/247
f 68/387/248 276/374/248 284/386/248
f 270/377/249 269/376/249 277/388/249 278/389/249
f 271/378/250 270/377/250 278/389/250 279/381/250
f 284/386/251 283/385/251 291/390/251 292/391/251
f 68/392/252 284/386/252 292/391/252
f 278/389/253 277/388/253 285/393/253 286/394/253
f 279/381/254 278/389/254 286/394/254 287/395/254
f 280/382/255 279/381/255 287/395/255 288/396/255
f 281/383/256 280/382/256 288/396/256 289/397/256
f 282/384/257 281/383/257 289/397/257 290/398/257
f 283/385/258 282/384/258 290/398/258 291/390/258
f 289/397/259 288/396/259 296/399/259 297/400/259
f 290/398/260 289/397/260 297/400/260 298/401/260
f 291/390/261 290/398/261 298/401/261 299/402/261
f 292/391/262 291/390/262 299/402/262 300/403/262
f 68/404/263 292/391/263 300/403/263
f 286/394/264 285/393/264 293/405/264 294/406/264
f 287/395/265 286/394/265 294/406/265 295/407/265
f 288/396/266 287/395/266 295/407/266 296/399/266
f 68/408/267 300/403/267 308/409/267
f 294/406/268 293/405/268 301/410/268 302/411/268
f 295/407/269 294/406/269 302/411/269 303/412/269
f 296/399/270 295/407/270 303/412/270 304/413/270
f 297/400/271 296/399/271 304/413/271 305/414/271
f 298/401/272 297/400/272 305/414/272 306/415/272
f 299/402/273 298/401/273 306/415/273 307/416/273
f 300/403/274 299/402/274 307/416/274 308/409/274
f 305/414/275 304/413/275 312/417/275 313/418/275
f 306/415/276 305/414/276 313/418/276 314/419/276
f 307/416/277 306/415/277 314/419/277 315/420/277
f 308/409/278 307/416/278 315/420/278 316/421/278
f 68/422/279 308/409/279 316/421/279
f 302/411/280 301/410/280 309/423/280 310/424/280
f 303/412/281 302/411/281 310/424/281 311/425/281
f 304/413/282 303/412/282 311/425/282 312/417/282
f 68/426/283 316/421/283 321/132/283
f 310/424/284 309/423/284 317/135/284 65/134/284
f 311/425/285 310/424/285 65/134/285 318/138/285
f 312/417/286 311/425/286 318/138/286 319/140/286
f 313/418/287 312/417/287 319/140/287 66/142/287
f 314/419/288 313/418/288 66/142/288 67/144/288
f 315/420/289 314/419/289 67/144/289 320/146/289
f 316/421/290 315/420/290 320/146/290 321/132/290
o Top
v 0.000000 0.136984 -0.123089
v 0.000000 0.201242 -0.088742
v 0.000000 0.216849 -0.069724
v 0.000000 0.238000 0.000000
v -0.024484 0.112500 -0.123089
v -0.024013 0.136984 -0.120723
v -0.022620 0.160527 -0.113719
v -0.020358 0.182224 -0.102344
v -0.017313 0.201242 -0.087037
v -0.013602 0.216849 -0.068384
v -0.009370 0.228447 -0.047104
v -0.004777 0.235589 -0.024013
v -0.048027 0.112500 -0.115947
v -0.047104 0.136984 -0.113719
v -0.044371 0.160527 -0.107121
v -0.039933 0.182224 -0.096406
v -0.033960 0.201242 -0.081987
v -0.026682 0.216849 -0.064417
v -0.018379 0.228447 -0.044371
v -0.009370 0.235589 -0.022620
v -0.069724 0.112500 -0.104349
v -0.068384 0.136984 -0.102344
v -0.064417 0.160527 -0.096406
v -0.057973 0.182224 -0.086763
v -0.049302 0.201242 -0.073786
v -0.038737 0.216849 -0.057973
v -0.026682 0.228447 -0.039933
v -0.013602 0.235589 -0.020358
v -0.088742 0.112500 -0.088742
v -0.087037 0.136984 -0.087037
v -0.081987 0.160527 -0.081987
v -0.073786 0.182224 -0.073786
v -0.062750 0.201242 -0.062750
v -0.049302 0.216849 -0.049302
v -0.033960 0.228447 -0.033960
v -0.017313 0.235589 -0.017313
v -0.104349 0.112500 -0.069724
v -0.102344 0.136984 -0.068384
v -0.096406 0.160527 -0.064417
v -0.086763 0.182224 -0.057973
v -0.073786 0.201242 -0.049302
v -0.057973 0.216849 -0.038737
v -0.039933 0.228447 -0.026682
v -0.020358 0.235589 -0.013602
v -0.115947 0.112500 -0.048027
v -0.113719 0.136984 -0.047104
v -0.107121 0.160527 -0.044371
v -0.096406 0.182224 -0.039933
v -0.081987 0.201242 -0.033960
v -0.064417 0.216849 -0.026682
v -0.044371 0.228447 -0.018379
v -0.022620 0.235589 -0.009370
v -0.123089 0.112500 -0.024484
v -0.120723 0.136984 -0.024013
v -0.113719 0.160527 -0.022620
v -0.102344 0.182224 -0.020358
v -0.087037 0.201242 -0.017313
v -0.068384 0.216849 -0.013602
v -0.047104 0.228447 -0.009370
v -0.024013 0.235589 -0.004777
v -0.125500 0.112500 0.000000
v -0.123089 0.136984 0.000000
v -0.115947 0.160527 0.000000
v -0.104349 0.182224 -0.000000
v -0.088742 0.201242 0.000000
v -0.069724 0.216849 0.000000
v -0.048027 0.228447 0.000000
v -0.024484 0.235589 0.000000
v -0.123089 0.112500 0.024484
v -0.120723 0.136984 0.024013
v -0.113719 0.160527 0.022620
v -0.102344 0.182224 0.020358
v -0.087037 0.201242 0.017313
v -0.068384 0.216849 0.013602
v -0.047104 0.228447 0.009370
v -0.024013 0.235589 0.004777
v -0.115947 0.112500 0.048027
v -0.113719 0.136984 0.047104
v -0.107121 0.160527 0.044371
v -0.096406 0.182224 0.039933
v -0.081987 0.201242 0.033960
v -0.064417 0.216849 0.026682
v -0.044371 0.228447 0.018379
v -0.022620 0.235589 0.009370
v -0.104349 0.112500 0.069724
v -0.102344 0.136984 0.068384
v -0.096406 0.160527 0.064417
v -0.086763 0.182224 0.057973
v -0.073786 0.201242 0.049302
v -0.057973 0.216849 0.038737
v -0.039933 0.228447 0.026682
v -0.020358 0.235589 0.013602
v -0.088742 0.112500 0.088742
v -0.087037 0.136984 0.087037
v -0.081987 0.160527 0.081987
v -0.073786 0.182224 0.073786
v -0.062750 0.201242 0.062750
v -0.049302 0.216849 0.049302
v -0.033960 0.228447 0.033960
v -0.017313 0.235589 0.017313
v -0.069724 0.112500 0.104349
v -0.068384 0.136984 0.102344
v -0.064417 0.160527 0.096406
v -0.057973 0.182224 0.086763
v -0.049302 0.201242 0.073786
v -0.038737 0.216849 0.057973
v -0.026682 0.228447 0.039933
v -0.013602 0.235589 0.020358
v -0.048027 0.112500 0.115947
v -0.047104 0.136984 0.113719
v -0.044371 0.160527 0.107121
v -0.039933 0.182224 0.096406
v -0.033960 0.201242 0.081987
v -0.026682 0.216849 0.064417
v -0.018379 0.228447 0.044371
v -0.009370 0.235589 0.022620
v -0.024484 0.112500 0.123088
v -0.024013 0.136984 0.120723
v -0.022620 0.160527 0.113719
v -0.020358 0.182224 0.102344
v -0.017313 0.201242 0.087037
v -0.013602 0.216849 0.068384
v -0.009370 0.228447 0.047104
v -0.004777 0.235589 0.024013
v 0.000000 0.112500 0.125500
v 0.000000 0.136984 0.123089
v 0.000000 0.160527 0.115947
v 0.000000 0.182224 0.104349
v 0.000000 0.201242 0.088742
v 0.000000 0.216849 0.069724
v 0.000000 0.228447 0.048027
v 0.000000 0.235589 0.024484
v 0.024484 0.112500 0.123088
v 0.024013 0.136984 0.120723
v 0.022620 0.160527 0.113719
v 0.020358 0.182224 0.102344
v 0.017313 0.201242 0.087037
v 0.013602 0.216849 0.068384
v 0.009370 0.228447 0.047104
v 0.004777 0.235589 0.024013
v 0.048027 0.112500 0.115947
v 0.047104 0.136984 0.113719
v 0.044371 0.160527 0.107121
v 0.039933 0.182224 0.096406
v 0.033960 0.201242 0.081987
v 0.026682 0.216849 0.064417
v 0.018379 0.228447 0.044371
v 0.009370 0.235589 0.022620
v 0.069724 0.112500 0.104349
v 0.068384 0.136984 0.102344
v 0.064417 0.160527 0.096406
v 0.057973 0.182224 0.086763
v 0.049302 0.201242 0.073786
v 0.038737 0.216849 0.057973
v 0.026682 0.228447 0.039933
v 0.013602 0.235589 0.020358
v 0.088742 0.112500 0.088742
v 0.087037 0.136984 0.087037
v 0.081987 0.160527 0.081987
v 0.073786 0.182224 0.073786
v 0.062750 0.201242 0.062750
v 0.049302 0.216849 0.049302
v 0.033960 0.228447 0.033960
v 0.017313 0.235589 0.017313
v 0.104349 0.112500 0.069724
v 0.102344 0.136984 0.068384
v 0.096406 0.160527 0.064417
v 0.086763 0.182224 0.057973
v 0.073786 0.201242 0.049302
v 0.057973 0.216849 0.038737
v 0.039933 0.228447 0.026682
v 0.020358 0.235589 0.013602
v 0.115947 0.112500 0.048027
v 0.113719 0.136984 0.047104
v 0.107121 0.160527 0.044371
v 0.096406 0.182224 0.039933
v 0.081987 0.201242 0.033960
v 0.064417 0.216849 0.026682
v 0.044371 0.228447 0.018379
v 0.022620 0.235589 0.009370
v 0.123088 0.112500 0.024484
v 0.120723 0.136984 0.024013
v 0.113719 0.160527 0.022620
v 0.102344 0.182224 0.020358
v 0.087037 0.201242 0.017313
v 0.068384 0.216849 0.013602
v 0.047104 0.228447 0.009370
v 0.024013 0.235589 0.004777
v 0.125500 0.112500 -0.000000
v 0.123088 0.136984 -0.000000
v 0.115947 0.160527 -0.000000
v 0.104349 0.182224 -0.000000
v 0.088742 0.201242 -0.000000
v 0.069724 0.216849 -0.000000
v 0.048027 0.228447 -0.000000
v 0.024484 0.235589 -0.000000
v 0.123088 0.112500 -0.024484
v 0.120723 0.136984 -0.024013
v 0.113719 0.160527 -0.022620
v 0.102344 0.182224 -0.020358
v 0.087037 0.201242 -0.017313
v 0.068384 0.216849 -0.013602
v 0.047104 0.228447 -0.009370
v 0.024013 0.235589 -0.004777
v 0.115947 0.112500 -0.048027
v 0.113719 0.136984 -0.047104
v 0.107121 0.160527 -0.044371
v 0.096406 0.182224 -0.039933
v 0.081987 0.201242 -0.033960
v 0.064417 0.216849 -0.026682
v 0.044371 0.228447 -0.018379
v 0.022620 0.235589 -0.009370
v 0.104349 0.112500 -0.069724
v 0.102344 0.136984 -0.068384
v 0.096406 0.160527 -0.064417
v 0.086763 0.182224 -0.057973
v 0.073786 0.201242 -0.049302
v 0.057973 0.216849 -0.038737
v 0.039933 0.228447 -0.026682
v 0.020358 0.235589 -0.013602
v 0.088742 0.112500 -0.088742
v 0.087037 0.136984 -0.087037
v 0.081987 0.160527 -0.081987
v 0.073786 0.182224 -0.073786
v 0.062750 0.201242 -0.062750
v 0.049302 0.216849 -0.049302
v 0.033960 0.228447 -0.033960
v 0.017313 0.235589 -0.017313
v 0.069724 0.112500 -0.104349
v 0.068384 0.136984 -0.102344
v 0.064417 0.160527 -0.096406
v 0.057973 0.182224 -0.086763
v 0.049302 0.201242 -0.073786
v 0.038737 0.216849 -0.057973
v 0.026682 0.228447 -0.039933
v 0.013602 0.235589 -0.020358
v 0.048027 0.112500 -0.115947
v 0.047104 0.136984 -0.113719
v 0.044371 0.160527 -0.107121
v 0.039933 0.182224 -0.096406
v 0.033960 0.201242 -0.081987
v 0.026682 0.216849 -0.064417
v 0.018379 0.228447 -0.044371
v 0.009370 0.235589 -0.022620
v 0.024484 0.112500 -0.123088
v 0.024013 0.136984 -0.120723
v 0.022620 0.160527 -0.113719
v 0.020358 0.182224 -0.102344
v 0.017313 0.201242 -0.087037
v 0.013602 0.216849 -0.068384
v 0.009370 0.228447 -0.047104
v 0.004777 0.235589 -0.024013
v -0.000000 0.112500 -0.125500
v -0.000000 0.160527 -0.115947
v -0.000000 0.182224 -0.104349
v 0.000000 0.228447 -0.048027
v 0.000000 0.235589 -0.024484
vn -0.0097 0.9951 -0.0980
vn -0.0975 0.0975 -0.9904
vn -0.0938 0.2890 -0.9527
vn -0.0865 0.4696 -0.8786
vn -0.0759 0.6326 -0.7708
vn -0.0624 0.7715 -0.6332
vn -0.0464 0.8810 -0.4709
vn -0.0286 0.9565 -0.2902
vn -0.0846 0.9565 -0.2790
vn -0.0286 0.9951 -0.0942
vn -0.2889 0.0975 -0.9524
vn -0.2779 0.2890 -0.9161
vn -0.2563 0.4696 -0.8448
vn -0.2248 0.6326 -0.7412
vn -0.1847 0.7715 -0.6088
vn -0.1374 0.8810 -0.4528
vn -0.4162 0.4696 -0.7786
vn -0.3651 0.6326 -0.6831
vn -0.2999 0.7715 -0.5611
vn -0.2230 0.8810 -0.4173
vn -0.1374 0.9565 -0.2571
vn -0.0464 0.9951 -0.0869
vn -0.4691 0.0975 -0.8777
vn -0.4513 0.2890 -0.8443
vn -0.1850 0.9565 -0.2254
vn -0.0625 0.9951 -0.0761
vn -0.6314 0.0975 -0.7693
vn -0.6073 0.2890 -0.7400
vn -0.5601 0.4696 -0.6825
vn -0.4913 0.6326 -0.5987
vn -0.4036 0.7715 -0.4918
vn -0.3002 0.8810 -0.3658
vn -0.5987 0.6326 -0.4913
vn -0.4918 0.7715 -0.4036
vn -0.3658 0.8810 -0.3002
vn -0.2254 0.9565 -0.1850
vn -0.0761 0.9951 -0.0625
vn -0.7693 0.0975 -0.6314
vn -0.7400 0.2890 -0.6073
vn -0.6825 0.4696 -0.5601
vn -0.0869 0.9951 -0.0464
vn -0.8777 0.0975 -0.4691
vn -0.8443 0.2890 -0.4513
vn -0.7786 0.4696 -0.4162
vn -0.6831 0.6326 -0.3651
vn -0.5611 0.7715 -0.2999
vn -0.4173 0.8810 -0.2230
vn -0.2571 0.9565 -0.1374
vn -0.7412 0.6326 -0.2248
vn -0.6088 0.7715 -0.1847
vn -0.4528 0.8810 -0.1374
vn -0.2790 0.9565 -0.0846
vn -0.0942 0.9951 -0.0286
vn -0.9524 0.0975 -0.2889
vn -0.9161 0.2890 -0.2779
vn -0.8448 0.4696 -0.2563
vn -0.0980 0.9951 -0.0097
vn -0.9904 0.0975 -0.0975
vn -0.9527 0.2890 -0.0938
vn -0.8786 0.4696 -0.0865
vn -0.7708 0.6326 -0.0759
vn -0.6332 0.7715 -0.0624
vn -0.4709 0.8810 -0.0464
vn -0.2902 0.9565 -0.0286
vn -0.6332 0.7715 0.0624
vn -0.4709 0.8810 0.0464
vn -0.2902 0.9565 0.0286
vn -0.0980 0.9951 0.0097
vn -0.9904 0.0975 0.0975
vn -0.9527 0.2890 0.0938
vn -0.8786 0.4696 0.0865
vn -0.7708 0.6326 0.0759
vn -0.9161 0.2890 0.2779
vn -0.8448 0.4696 0.2563
vn -0.7412 0.6326 0.2248
vn -0.6088 0.7715 0.1847
vn -0.4528 0.8810 0.1374
vn -0.2790 0.9565 0.0846
vn -0.0942 0.9951 0.0286
vn -0.9524 0.0975 0.2889
vn -0.4173 0.8810 0.2231
vn -0.2571 0.9565 0.1374
vn -0.0869 0.9951 0.0464
vn -0.8777 0.0975 0.4691
vn -0.8443 0.2890 0.4513
vn -0.7786 0.4696 0.4162
vn -0.6831 0.6326 0.3651
vn -0.5611 0.7715 0.2999
vn -0.7400 0.2890 0.6073
vn -0.6825 0.4696 0.5601
vn -0.5987 0.6326 0.4913
vn -0.4918 0.7715 0.4036
vn -0.3658 0.8810 0.3002
vn -0.2254 0.9565 0.1850
vn -0.0761 0.9951 0.0625
vn -0.7693 0.0975 0.6314
vn -0.3002 0.8810 0.3658
vn -0.1850 0.9565 0.2254
vn -0.0625 0.9951 0.0761
vn -0.6314 0.0975 0.7693
vn -0.6073 0.2890 0.7400
vn -0.5601 0.4696 0.6825
vn -0.4913 0.6326 0.5987
vn -0.4036 0.7715 0.4918
vn -0.4162 0.4696 0.7786
vn -0.3651 0.6326 0.6831
vn -0.2999 0.7715 0.5611
vn -0.2231 0.8810 0.4173
vn -0.1374 0.9565 0.2571
vn -0.0464 0.9951 0.0869
vn -0.4691 0.0975 0.8777
vn -0.4513 0.2890 0.8443
vn -0.0846 0.9565 0.2790
vn -0.0286 0.9951 0.0942
vn -0.2889 0.0975 0.9524
vn -0.2779 0.2890 0.9161
vn -0.2563 0.4696 0.8448
vn -0.2248 0.6326 0.7412
vn -0.1847 0.7715 0.6088
vn -0.1374 0.8810 0.4528
vn -0.0865 0.4696 0.8786
vn -0.0759 0.6326 0.7708
vn -0.0624 0.7715 0.6332
vn -0.0464 0.8810 0.4709
vn -0.0286 0.9565 0.2902
vn -0.0097 0.9951 0.0980
vn -0.0975 0.0975 0.9904
vn -0.0938 0.2890 0.9527
vn 0.0286 0.9565 0.2902
vn 0.0097 0.9951 0.0980
vn 0.0975 0.0975 0.9904
vn 0.0938 0.2890 0.9527
vn 0.0865 0.4696 0.8786
vn 0.0759 0.6326 0.7708
vn 0.0624 0.7715 0.6332
vn 0.0464 0.8810 0.4709
vn 0.2248 0.6326 0.7412
vn 0.1847 0.7715 0.6088
vn 0.1374 0.8810 0.4528
vn 0.0846 0.9565 0.2790
vn 0.0286 0.9951 0.0942
vn 0.2889 0.0975 0.9524
vn 0.2779 0.2890 0.9161
vn 0.2563 0.4696 0.8448
vn 0.0464 0.9951 0.0869
vn 0.4691 0.0975 0.8777
vn 0.4513 0.2890 0.8443
vn 0.4162 0.4696 0.7786
vn 0.3651 0.6326 0.6831
vn 0.2999 0.7715 0.5611
vn 0.2231 0.8810 0.4173
vn 0.1374 0.9565 0.2571
vn 0.4036 0.7715 0.4918
vn 0.3002 0.8810 0.3658
vn 0.1850 0.9565 0.2254
vn 0.0625 0.9951 0.0761
vn 0.6314 0.0975 0.7693
vn 0.6073 0.2890 0.7400
vn 0.5601 0.4696 0.6825
vn 0.4913 0.6326 0.5987
vn 0.7693 0.0975 0.6314
vn 0.7400 0.2890 0.6073
vn 0.6825 0.4696 0.5601
vn 0.5987 0.6326 0.4913
vn 0.4918 0.7715 0.4036
vn 0.3658 0.8810 0.3002
vn 0.2254 0.9565 0.1850
vn 0.0761 0.9951 0.0625
vn 0.5611 0.7715 0.2999
vn 0.4173 0.8810 0.2230
vn 0.2571 0.9565 0.1374
vn 0.0869 0.9951 0.0464
vn 0.8777 0.0975 0.4691
vn 0.8443 0.2890 0.4513
vn 0.7786 0.4696 0.4162
vn 0.6831 0.6326 0.3651
vn 0.9161 0.2890 0.2779
vn 0.8448 0.4696 0.2563
vn 0.7412 0.6326 0.2248
vn 0.6088 0.7715 0.1847
vn 0.4528 0.8810 0.1374
vn 0.2790 0.9565 0.0846
vn 0.0942 0.9951 0.0286
vn 0.9524 0.0975 0.2889
vn 0.4709 0.8810 0.0464
vn 0.2902 0.9565 0.0286
vn 0.0980 0.9951 0.0097
vn 0.9904 0.0975 0.0975
vn 0.9527 0.2890 0.0938
vn 0.8786 0.4696 0.0865
vn 0.7708 0.6326 0.0759
vn 0.6332 0.7715 0.0624
vn 0.9527 0.2890 -0.0938
vn 0.8786 0.4696 -0.0865
vn 0.7708 0.6326 -0.0759
vn 0.6332 0.7715 -0.0624
vn 0.4709 0.8810 -0.0464
vn 0.2902 0.9565 -0.0286
vn 0.0980 0.9951 -0.0097
vn 0.9904 0.0975 -0.0975
vn 0.4528 0.8810 -0.1374
vn 0.2790 0.9565 -0.0846
vn 0.0942 0.9951 -0.0286
vn 0.9524 0.0975 -0.2889
vn 0.9161 0.2890 -0.2779
vn 0.8448 0.4696 -0.2563
vn 0.7412 0.6326 -0.2248
vn 0.6088 0.7715 -0.1847
vn 0.7786 0.4696 -0.4162
vn 0.6831 0.6326 -0.3651
vn 0.5611 0.7715 -0.2999
vn 0.4173 0.8810 -0.2231
vn 0.2571 0.9565 -0.1374
vn 0.0869 0.9951 -0.0464
vn 0.8777 0.0975 -0.4691
vn 0.8443 0.2890 -0.4513
vn 0.2254 0.9565 -0.1850
vn 0.0761 0.9951 -0.0625
vn 0.7693 0.0975 -0.6314
vn 0.7400 0.2890 -0.6073
vn 0.6825 0.4696 -0.5601
vn 0.5987 0.6326 -0.4913
vn 0.4918 0.7715 -0.4036
vn 0.3658 0.8810 -0.3002
vn 0.4913 0.6326 -0.5987
vn 0.4036 0.7715 -0.4918
vn 0.3002 0.8810 -0.3658
vn 0.1850 0.9565 -0.2254
vn 0.0625 0.9951 -0.0761
vn 0.6314 0.0975 -0.7693
vn 0.6073 0.2890 -0.7400
vn 0.5601 0.4696 -0.6825
vn 0.0464 0.9951 -0.0869
vn 0.4691 0.0975 -0.8777
vn 0.4513 0.2890 -0.8443
vn 0.4162 0.4696 -0.7786
vn 0.3651 0.6326 -0.6831
vn 0.2999 0.7715 -0.5611
vn 0.2230 0.8810 -0.4173
vn 0.1374 0.9565 -0.2571
vn 0.2248 0.6326 -0.7412
vn 0.1847 0.7715 -0.6088
vn 0.1374 0.8810 -0.4528
vn 0.0846 0.9565 -0.2790
vn 0.0286 0.9951 -0.0942
vn 0.2889 0.0975 -0.9524
vn 0.2779 0.2890 -0.9161
vn 0.2563 0.4696 -0.8448
vn 0.0097 0.9951 -0.0980
vn 0.0976 0.0975 -0.9904
vn 0.0938 0.2890 -0.9527
vn 0.0865 0.4696 -0.8786
vn 0.0759 0.6326 -0.7708
vn 0.0624 0.7715 -0.6332
vn 0.0464 0.8810 -0.4709
vn 0.0286 0.9565 -0.2902
vt 0.734375 0.000000
vt 0.750000 0.062500
vt 0.718750 0.062500
vt 0.750000 0.437500
vt 0.750000 0.500000
vt 0.718750 0.500000
vt 0.718750 0.437500
vt 0.750000 0.375000
vt 0.718750 0.375000
vt 0.750000 0.312500
vt 0.718750 0.312500
vt 0.750000 0.250000
vt 0.718750 0.250000
vt 0.750000 0.187500
vt 0.718750 0.187500
vt 0.750000 0.125000
vt 0.718750 0.125000
vt 0.687500 0.125000
vt 0.687500 0.062500
vt 0.703125 0.000000
vt 0.687500 0.500000
vt 0.687500 0.437500
vt 0.687500 0.375000
vt 0.687500 0.312500
vt 0.687500 0.250000
vt 0.687500 0.187500
vt 0.656250 0.375000
vt 0.656250 0.312500
vt 0.656250 0.250000
vt 0.656250 0.187500
vt 0.656250 0.125000
vt 0.656250 0.062500
vt 0.671875 0.000000
vt 0.656250 0.500000
vt 0.656250 0.437500
vt 0.625000 0.125000
vt 0.625000 0.062500
vt 0.640625 0.000000
vt 0.625000 0.500000
vt 0.625000 0.437500
vt 0.625000 0.375000
vt 0.625000 0.312500
vt 0.625000 0.250000
vt 0.625000 0.187500
vt 0.593750 0.312500
vt 0.593750 0.250000
vt 0.593750 0.187500
vt 0.593750 0.125000
vt 0.593750 0.062500
vt 0.609375 0.000000
vt 0.593750 0.500000
vt 0.593750 0.437500
vt 0.593750 0.375000
vt 0.578125 0.000000
vt 0.562500 0.062500
vt 0.562500 0.500000
vt 0.562500 0.437500
vt 0.562500 0.375000
vt 0.562500 0.312500
vt 0.562500 0.250000
vt 0.562500 0.187500
vt 0.562500 0.125000
vt 0.531250 0.312500
vt 0.531250 0.250000
vt 0.531250 0.187500
vt 0.531250 0.125000
vt 0.531250 0.062500
vt 0.546875 0.000000
vt 0.531250 0.500000
vt 0.531250 0.437500
vt 0.531250 0.375000
vt 0.515625 0.000000
vt 0.500000 0.062500
vt 0.500000 0.500000
vt 0.500000 0.437500
vt 0.500000 0.375000
vt 0.500000 0.312500
vt 0.500000 0.250000
vt 0.500000 0.187500
vt 0.500000 0.125000
vt 0.468750 0.250000
vt 0.468750 0.187500
vt 0.468750 0.125000
vt 0.468750 0.062500
vt 0.484375 0.000000
vt 0.468750 0.500000
vt 0.468750 0.437500
vt 0.468750 0.375000
vt 0.468750 0.312500
vt 0.437500 0.437500
vt 0.437500 0.375000
vt 0.437500 0.312500
vt 0.437500 0.250000
vt 0.437500 0.187500
vt 0.437500 0.125000
vt 0.437500 0.062500
vt 0.453125 0.000000
vt 0.437500 0.500000
vt 0.406250 0.187500
vt 0.406250 0.125000
vt 0.406250 0.062500
vt 0.421875 0.000000
vt 0.406250 0.500000
vt 0.406250 0.437500
vt 0.406250 0.375000
vt 0.406250 0.312500
vt 0.406250 0.250000
vt 0.375000 0.437500
vt 0.375000 0.375000
vt 0.375000 0.312500
vt 0.375000 0.250000
vt 0.375000 0.187500
vt 0.375000 0.125000
vt 0.375000 0.062500
vt 0.390625 0.000000
vt 0.375000 0.500000
vt 0.343750 0.187500
vt 0.343750 0.125000
vt 0.343750 0.062500
vt 0.359375 0.000000
vt 0.343750 0.500000
vt 0.343750 0.437500
vt 0.343750 0.375000
vt 0.343750 0.312500
vt 0.343750 0.250000
vt 0.312500 0.375000
vt 0.312500 0.312500
vt 0.312500 0.250000
vt 0.312500 0.187500
vt 0.312500 0.125000
vt 0.312500 0.062500
vt 0.328125 0.000000
vt 0.312500 0.500000
vt 0.312500 0.437500
vt 0.281250 0.125000
vt 0.281250 0.062500
vt 0.296875 0.000000
vt 0.281250 0.500000
vt 0.281250 0.437500
vt 0.281250 0.375000
vt 0.281250 0.312500
vt 0.281250 0.250000
vt 0.281250 0.187500
vt 0.250000 0.375000
vt 0.250000 0.312500
vt 0.250000 0.250000
vt 0.250000 0.187500
vt 0.250000 0.125000
vt 0.250000 0.062500
vt 0.265625 0.000000
vt 0.250000 0.500000
vt 0.250000 0.437500
vt 0.218750 0.125000
vt 0.218750 0.062500
vt 0.234375 0.000000
vt 0.218750 0.500000
vt 0.218750 0.437500
vt 0.218750 0.375000
vt 0.218750 0.312500
vt 0.218750 0.250000
vt 0.218750 0.187500
vt 0.187500 0.312500
vt 0.187500 0.250000
vt 0.187500 0.187500
vt 0.187500 0.125000
vt 0.187500 0.062500
vt 0.203125 0.000000
vt 0.187500 0.500000
vt 0.187500 0.437500
vt 0.187500 0.375000
vt 0.171875 0.000000
vt 0.156250 0.062500
vt 0.156250 0.500000
vt 0.156250 0.437500
vt 0.156250 0.375000
vt 0.156250 0.312500
vt 0.156250 0.250000
vt 0.156250 0.187500
vt 0.156250 0.125000
vt 0.125000 0.250000
vt 0.125000 0.187500
vt 0.125000 0.125000
vt 0.125000 0.062500
vt 0.140625 0.000000
vt 0.125000 0.500000
vt 0.125000 0.437500
vt 0.125000 0.375000
vt 0.125000 0.312500
vt 0.093750 0.500000
vt 0.093750 0.437500
vt 0.093750 0.375000
vt 0.093750 0.312500
vt 0.093750 0.250000
vt 0.093750 0.187500
vt 0.093750 0.125000
vt 0.093750 0.062500
vt 0.109375 0.000000
vt 0.062500 0.250000
vt 0.062500 0.187500
vt 0.062500 0.125000
vt 0.062500 0.062500
vt 0.078125 0.000000
vt 0.062500 0.500000
vt 0.062500 0.437500
vt 0.062500 0.375000
vt 0.062500 0.312500
vt 0.031250 0.437500
vt 0.031250 0.375000
vt 0.031250 0.312500
vt 0.031250 0.250000
vt 0.031250 0.187500
vt 0.031250 0.125000
vt 0.031250 0.062500
vt 0.046875 0.000000
vt 0.031250 0.500000
vt 0.000000 0.187500
vt 0.000000 0.125000
vt 0.000000 0.062500
vt 0.015625 0.000000
vt 0.000000 0.500000
vt 0.000000 0.437500
vt 0.000000 0.375000
vt 0.000000 0.312500
vt 0.000000 0.250000
vt 1.000000 0.375000
vt 1.000000 0.437500
vt 0.968750 0.437500
vt 0.968750 0.375000
vt 1.000000 0.312500
vt 0.968750 0.312500
vt 1.000000 0.250000
vt 0.968750 0.250000
vt 1.000000 0.187500
vt 0.968750 0.187500
vt 1.000000 0.125000
vt 0.968750 0.125000
vt 1.000000 0.062500
vt 0.968750 0.062500
vt 0.984375 0.000000
vt 1.000000 0.500000
vt 0.968750 0.500000
vt 0.937500 0.187500
vt 0.937500 0.125000
vt 0.937500 0.062500
vt 0.953125 0.000000
vt 0.937500 0.500000
vt 0.937500 0.437500
vt 0.937500 0.375000
vt 0.937500 0.312500
vt 0.937500 0.250000
vt 0.906250 0.375000
vt 0.906250 0.312500
vt 0.906250 0.250000
vt 0.906250 0.187500
vt 0.906250 0.125000
vt 0.906250 0.062500
vt 0.921875 0.000000
vt 0.906250 0.500000
vt 0.906250 0.437500
vt 0.875000 0.125000
vt 0.875000 0.062500
vt 0.890625 0.000000
vt 0.875000 0.500000
vt 0.875000 0.437500
vt 0.875000 0.375000
vt 0.875000 0.312500
vt 0.875000 0.250000
vt 0.875000 0.187500
vt 0.843750 0.312500
vt 0.843750 0.250000
vt 0.843750 0.187500
vt 0.843750 0.125000
vt 0.843750 0.062500
vt 0.859375 0.000000
vt 0.843750 0.500000
vt 0.843750 0.437500
vt 0.843750 0.375000
vt 0.828125 0.000000
vt 0.812500 0.062500
vt 0.812500 0.500000
vt 0.812500 0.437500
vt 0.812500 0.375000
vt 0.812500 0.312500
vt 0.812500 0.250000
vt 0.812500 0.187500
vt 0.812500 0.125000
vt 0.781250 0.312500
vt 0.781250 0.250000
vt 0.781250 0.187500
vt 0.781250 0.125000
vt 0.781250 0.062500
vt 0.796875 0.000000
vt 0.781250 0.500000
vt 0.781250 0.437500
vt 0.781250 0.375000
vt 0.765625 0.000000
s 0
f 325/427/291 578/428/291 333/429/291
f 322/430/292 574/431/292 326/432/292 327/433/292
f 575/434/293 322/430/293 327/433/293 328/435/293
f 576/436/294 575/434/294 328/435/294 329/437/294
f 323/438/295 576/436/295 329/437/295 330/439/295
f 324/440/296 323/438/296 330/439/296 331/441/296
f 577/442/297 324/440/297 331/441/297 332/443/297
f 578/428/298 577/442/298 332/443/298 333/429/298
f 333/429/299 332/443/299 340/444/299 341/445/299
f 325/446/300 333/429/300 341/445/300
f 327/433/301 326/432/301 334/447/301 335/448/301
f 328/435/302 327/433/302 335/448/302 336/449/302
f 329/437/303 328/435/303 336/449/303 337/450/303
f 330/439/304 329/437/304 337/450/304 338/451/304
f 331/441/305 330/439/305 338/451/305 339/452/305
f 332/443/306 331/441/306 339/452/306 340/444/306
f 337/450/307 336/449/307 344/453/307 345/454/307
f 338/451/308 337/450/308 345/454/308 346/455/308
f 339/452/309 338/451/309 346/455/309 347/456/309
f 340/444/310 339/452/310 347/456/310 348/457/310
f 341/445/311 340/444/311 348/457/311 349/458/311
f 325/459/312 341/445/312 349/458/312
f 335/448/313 334/447/313 342/460/313 343/461/313
f 336/449/314 335/448/314 343/461/314 344/453/314
f 349/458/315 348/457/315 356/462/315 357/463/315
f 325/464/316 349/458/316 357/463/316
f 343/461/317 342/460/317 350/465/317 351/466/317
f 344/453/318 343/461/318 351/466/318 352/467/318
f 345/454/319 344/453/319 352/467/319 353/468/319
f 346/455/320 345/454/320 353/468/320 354/469/320
f 347/456/321 346/455/321 354/469/321 355/470/321
f 348/457/322 347/456/322 355/470/322 356/462/322
f 354/469/323 353/468/323 361/471/323 362/472/323
f 355/470/324 354/469/324 362/472/324 363/473/324
f 356/462/325 355/470/325 363/473/325 364/474/325
f 357/463/326 356/462/326 364/474/326 365/475/326
f 325/476/327 357/463/327 365/475/327
f 351/466/328 350/465/328 358/477/328 359/478/328
f 352/467/329 351/466/329 359/478/329 360/479/329
f 353/468/330 352/467/330 360/479/330 361/471/330
f 325/480/331 365/475/331 373/481/331
f 359/478/332 358/477/332 366/482/332 367/483/332
f 360/479/333 359/478/333 367/483/333 368/484/333
f 361/471/334 360/479/334 368/484/334 369/485/334
f 362/472/335 361/471/335 369/485/335 370/486/335
f 363/473/336 362/472/336 370/486/336 371/487/336
f 364/474/337 363/473/337 371/487/337 372/488/337
f 365/475/338 364/474/338 372/488/338 373/481/338
f 370/486/339 369/485/339 377/489/339 378/490/339
f 371/487/340 370/486/340 378/490/340 379/491/340
f 372/488/341 371/487/341 379/491/341 380/492/341
f 373/481/342 372/488/342 380/492/342 381/493/342
f 325/494/343 373/481/343 381/493/343
f 367/483/344 366/482/344 374/495/344 375/496/344
f 368/484/345 367/483/345 375/496/345 376/497/345
f 369/485/346 368/484/346 376/497/346 377/489/346
f 325/498/347 381/493/347 389/499/347
f 375/496/348 374/495/348 382/500/348 383/501/348
f 376/497/349 375/496/349 383/501/349 384/502/349
f 377/489/350 376/497/350 384/502/350 385/503/350
f 378/490/351 377/489/351 385/503/351 386/504/351
f 379/491/352 378/490/352 386/504/352 387/505/352
f 380/492/353 379/491/353 387/505/353 388/506/353
f 381/493/354 380/492/354 388/506/354 389/499/354
f 387/505/355 386/504/355 394/507/355 395/508/355
f 388/506/356 387/505/356 395/508/356 396/509/356
f 389/499/357 388/506/357 396/509/357 397/510/357
f 325/511/358 389/499/358 397/510/358
f 383/501/359 382/500/359 390/512/359 391/513/359
f 384/502/360 383/501/360 391/513/360 392/514/360
f 385/503/361 384/502/361 392/514/361 393/515/361
f 386/504/362 385/503/362 393/515/362 394/507/362
f 392/514/363 391/513/363 399/516/363 400/517/363
f 393/515/364 392/514/364 400/517/364 401/518/364
f 394/507/365 393/515/365 401/518/365 402/519/365
f 395/508/366 394/507/366 402/519/366 403/520/366
f 396/509/367 395/508/367 403/520/367 404/521/367
f 397/510/368 396/509/368 404/521/368 405/522/368
f 325/523/369 397/510/369 405/522/369
f 391/513/370 390/512/370 398/524/370 399/516/370
f 404/521/371 403/520/371 411/525/371 412/526/371
f 405/522/372 404/521/372 412/526/372 413/527/372
f 325/528/373 405/522/373 413/527/373
f 399/516/374 398/524/374 406/529/374 407/530/374
f 400/517/375 399/516/375 407/530/375 408/531/375
f 401/518/376 400/517/376 408/531/376 409/532/376
f 402/519/377 401/518/377 409/532/377 410/533/377
f 403/520/378 402/519/378 410/533/378 411/525/378
f 408/531/379 407/530/379 415/534/379 416/535/379
f 409/532/380 408/531/380 416/535/380 417/536/380
f 410/533/381 409/532/381 417/536/381 418/537/381
f 411/525/382 410/533/382 418/537/382 419/538/382
f 412/526/383 411/525/383 419/538/383 420/539/383
f 413/527/384 412/526/384 420/539/384 421/540/384
f 325/541/385 413/527/385 421/540/385
f 407/530/386 406/529/386 414/542/386 415/534/386
f 420/539/387 419/538/387 427/543/387 428/544/387
f 421/540/388 420/539/388 428/544/388 429/545/388
f 325/546/389 421/540/389 429/545/389
f 415/534/390 414/542/390 422/547/390 423/548/390
f 416/535/391 415/534/391 423/548/391 424/549/391
f 417/536/392 416/535/392 424/549/392 425/550/392
f 418/537/393 417/536/393 425/550/393 426/551/393
f 419/538/394 418/537/394 426/551/394 427/543/394
f 425/550/395 424/549/395 432/552/395 433/553/395
f 426/551/396 425/550/396 433/553/396 434/554/396
f 427/543/397 426/551/397 434/554/397 435/555/397
f 428/544/398 427/543/398 435/555/398 436/556/398
f 429/545/399 428/544/399 436/556/399 437/557/399
f 325/558/400 429/545/400 437/557/400
f 423/548/401 422/547/401 430/559/401 431/560/401
f 424/549/402 423/548/402 431/560/402 432/552/402
f 437/557/403 436/556/403 444/561/403 445/562/403
f 325/563/404 437/557/404 445/562/404
f 431/560/405 430/559/405 438/564/405 439/565/405
f 432/552/406 431/560/406 439/565/406 440/566/406
f 433/553/407 432/552/407 440/566/407 441/567/407
f 434/554/408 433/553/408 441/567/408 442/568/408
f 435/555/409 434/554/409 442/568/409 443/569/409
f 436/556/410 435/555/410 443/569/410 444/561/410
f 441/567/411 440/566/411 448/570/411 449/571/411
f 442/568/412 441/567/412 449/571/412 450/572/412
f 443/569/413 442/568/413 450/572/413 451/573/413
f 444/561/414 443/569/414 451/573/414 452/574/414
f 445/562/415 444/561/415 452/574/415 453/575/415
f 325/576/416 445/562/416 453/575/416
f 439/565/417 438/564/417 446/577/417 447/578/417
f 440/566/418 439/565/418 447/578/418 448/570/418
f 453/575/419 452/574/419 460/579/419 461/580/419
f 325/581/420 453/575/420 461/580/420
f 447/578/421 446/577/421 454/582/421 455/583/421
f 448/570/422 447/578/422 455/583/422 456/584/422
f 449/571/423 448/570/423 456/584/423 457/585/423
f 450/572/424 449/571/424 457/585/424 458/586/424
f 451/573/425 450/572/425 458/586/425 459/587/425
f 452/574/426 451/573/426 459/587/426 460/579/426
f 458/586/427 457/585/427 465/588/427 466/589/427
f 459/587/428 458/586/428 466/589/428 467/590/428
f 460/579/429 459/587/429 467/590/429 468/591/429
f 461/580/430 460/579/430 468/591/430 469/592/430
f 325/593/431 461/580/431 469/592/431
f 455/583/432 454/582/432 462/594/432 463/595/432
f 456/584/433 455/583/433 463/595/433 464/596/433
f 457/585/434 456/584/434 464/596/434 465/588/434
f 325/597/435 469/592/435 477/598/435
f 463/595/436 462/594/436 470/599/436 471/600/436
f 464/596/437 463/595/437 471/600/437 472/601/437
f 465/588/438 464/596/438 472/601/438 473/602/438
f 466/589/439 465/588/439 473/602/439 474/603/439
f 467/590/440 466/589/440 474/603/440 475/604/440
f 468/591/441 467/590/441 475/604/441 476/605/441
f 469/592/442 468/591/442 476/605/442 477/598/442
f 475/604/443 474/603/443 482/606/443 483/607/443
f 476/605/444 475/604/444 483/607/444 484/608/444
f 477/598/445 476/605/445 484/608/445 485/609/445
f 325/610/446 477/598/446 485/609/446
f 471/600/447 470/599/447 478/611/447 479/612/447
f 472/601/448 471/600/448 479/612/448 480/613/448
f 473/602/449 472/601/449 480/613/449 481/614/449
f 474/603/450 473/602/450 481/614/450 482/606/450
f 479/612/451 478/611/451 486/615/451 487/616/451
f 480/613/452 479/612/452 487/616/452 488/617/452
f 481/614/453 480/613/453 488/617/453 489/618/453
f 482/606/454 481/614/454 489/618/454 490/619/454
f 483/607/455 482/606/455 490/619/455 491/620/455
f 484/608/456 483/607/456 491/620/456 492/621/456
f 485/609/457 484/608/457 492/621/457 493/622/457
f 325/623/458 485/609/458 493/622/458
f 491/620/459 490/619/459 498/624/459 499/625/459
f 492/621/460 491/620/460 499/625/460 500/626/460
f 493/622/461 492/621/461 500/626/461 501/627/461
f 325/628/462 493/622/462 501/627/462
f 487/616/463 486/615/463 494/629/463 495/630/463
f 488/617/464 487/616/464 495/630/464 496/631/464
f 489/618/465 488/617/465 496/631/465 497/632/465
f 490/619/466 489/618/466 497/632/466 498/624/466
f 496/631/467 495/630/467 503/633/467 504/634/467
f 497/632/468 496/631/468 504/634/468 505/635/468
f 498/624/469 497/632/469 505/635/469 506/636/469
f 499/625/470 498/624/470 506/636/470 507/637/470
f 500/626/471 499/625/471 507/637/471 508/638/471
f 501/627/472 500/626/472 508/638/472 509/639/472
f 325/640/473 501/627/473 509/639/473
f 495/630/474 494/629/474 502/641/474 503/633/474
f 508/638/475 507/637/475 515/642/475 516/643/475
f 509/639/476 508/638/476 516/643/476 517/644/476
f 325/645/477 509/639/477 517/644/477
f 503/633/478 502/641/478 510/646/478 511/647/478
f 504/634/479 503/633/479 511/647/479 512/648/479
f 505/635/480 504/634/480 512/648/480 513/649/480
f 506/636/481 505/635/481 513/649/481 514/650/481
f 507/637/482 506/636/482 514/650/482 515/642/482
f 512/651/483 511/652/483 519/653/483 520/654/483
f 513/655/484 512/651/484 520/654/484 521/656/484
f 514/657/485 513/655/485 521/656/485 522/658/485
f 515/659/486 514/657/486 522/658/486 523/660/486
f 516/661/487 515/659/487 523/660/487 524/662/487
f 517/663/488 516/661/488 524/662/488 525/664/488
f 325/665/489 517/663/489 525/664/489
f 511/652/490 510/666/490 518/667/490 519/653/490
f 524/662/491 523/660/491 531/668/491 532/669/491
f 525/664/492 524/662/492 532/669/492 533/670/492
f 325/671/493 525/664/493 533/670/493
f 519/653/494 518/667/494 526/672/494 527/673/494
f 520/654/495 519/653/495 527/673/495 528/674/495
f 521/656/496 520/654/496 528/674/496 529/675/496
f 522/658/497 521/656/497 529/675/497 530/676/497
f 523/660/498 522/658/498 530/676/498 531/668/498
f 529/675/499 528/674/499 536/677/499 537/678/499
f 530/676/500 529/675/500 537/678/500 538/679/500
f 531/668/501 530/676/501 538/679/501 539/680/501
f 532/669/502 531/668/502 539/680/502 540/681/502
f 533/670/503 532/669/503 540/681/503 541/682/503
f 325/683/504 533/670/504 541/682/504
f 527/673/505 526/672/505 534/684/505 535/685/505
f 528/674/506 527/673/506 535/685/506 536/677/506
f 541/682/507 540/681/507 548/686/507 549/687/507
f 325/688/508 541/682/508 549/687/508
f 535/685/509 534/684/509 542/689/509 543/690/509
f 536/677/510 535/685/510 543/690/510 544/691/510
f 537/678/511 536/677/511 544/691/511 545/692/511
f 538/679/512 537/678/512 545/692/512 546/693/512
f 539/680/513 538/679/513 546/693/513 547/694/513
f 540/681/514 539/680/514 547/694/514 548/686/514
f 546/693/515 545/692/515 553/695/515 554/696/515
f 547/694/516 546/693/516 554/696/516 555/697/516
f 548/686/517 547/694/517 555/697/517 556/698/517
f 549/687/518 548/686/518 556/698/518 557/699/518
f 325/700/519 549/687/519 557/699/519
f 543/690/520 542/689/520 550/701/520 551/702/520
f 544/691/521 543/690/521 551/702/521 552/703/521
f 545/692/522 544/691/522 552/703/522 553/695/522
f 325/704/523 557/699/523 565/705/523
f 551/702/524 550/701/524 558/706/524 559/707/524
f 552/703/525 551/702/525 559/707/525 560/708/525
f 553/695/526 552/703/526 560/708/526 561/709/526
f 554/696/527 553/695/527 561/709/527 562/710/527
f 555/697/528 554/696/528 562/710/528 563/711/528
f 556/698/529 555/697/529 563/711/529 564/712/529
f 557/699/530 556/698/530 564/712/530 565/705/530
f 562/710/531 561/709/531 569/713/531 570/714/531
f 563/711/532 562/710/532 570/714/532 571/715/532
f 564/712/533 563/711/533 571/715/533 572/716/533
f 565/705/534 564/712/534 572/716/534 573/717/534
f 325/718/535 565/705/535 573/717/535
f 559/707/536 558/706/536 566/719/536 567/720/536
f 560/708/537 559/707/537 567/720/537 568/721/537
f 561/709/538 560/708/538 568/721/538 569/713/538
f 325/722/539 573/717/539 578/428/539
f 567/720/540 566/719/540 574/431/540 322/430/540
f 568/721/541 567/720/541 322/430/541 575/434/541
f 569/713/542 568/721/542 575/434/542 576/436/542
f 570/714/543 569/713/543 576/436/543 323/438/543
f 571/715/544 570/714/544 323/438/544 324/440/544
f 572/716/545 571/715/545 324/440/545 577/442/545
f 573/717/546 572/716/546 577/442/546 578/428/546
o Eyelet
v -0.025000 -0.278500 -0.019000
v -0.025000 -0.273582 -0.018353
v -0.025000 -0.269000 -0.016454
v -0.025000 -0.265065 -0.013435
v -0.025000 -0.262046 -0.009500
v -0.025000 -0.260147 -0.004918
v -0.025000 -0.259500 -0.000000
v -0.025000 -0.260147 0.004918
v -0.025000 -0.262046 0.009500
v -0.025000 -0.265065 0.013435
v -0.025000 -0.269000 0.016454
v -0.025000 -0.273582 0.018353
v -0.025000 -0.278500 0.019000
v -0.025000 -0.283418 0.018353
v -0.025000 -0.288000 0.016454
v -0.025000 -0.291935 0.013435
v -0.025000 -0.294954 0.009500
v -0.025000 -0.296853 0.004918
v -0.025000 -0.297500 0.000000
v -0.025000 -0.296853 -0.004918
v -0.025000 -0.294954 -0.009500
v -0.025000 -0.291935 -0.013435
v -0.025000 -0.288000 -0.016454
v -0.025000 -0.283418 -0.018353
v 0.025000 -0.278500 -0.019000
v 0.025000 -0.273582 -0.018353
v 0.025000 -0.269000 -0.016454
v 0.025000 -0.265065 -0.013435
v 0.025000 -0.262046 -0.009500
v 0.025000 -0.260147 -0.004918
v 0.025000 -0.259500 -0.000000
v 0.025000 -0.260147 0.004918
v 0.025000 -0.262046 0.009500
v 0.025000 -0.265065 0.013435
v 0.025000 -0.269000 0.016454
v 0.025000 -0.273582 0.018353
v 0.025000 -0.278500 0.019000
v 0.025000 -0.283418 0.018353
v 0.025000 -0.288000 0.016454
v 0.025000 -0.291935 0.013435
v 0.025000 -0.294954 0.009500
v 0.025000 -0.296853 0.004918
v 0.025000 -0.297500 0.000000
v 0.025000 -0.296853 -0.004918
v 0.025000 -0.294954 -0.009500
v 0.025000 -0.291935 -0.013435
v 0.025000 -0.288000 -0.016454
v 0.025000 -0.283418 -0.018353
v 0.025000 -0.283418 -0.018353
v 0.025000 -0.288000 -0.016454
v 0.025000 -0.291935 -0.013435
v 0.025000 -0.294954 -0.009500
v 0.025000 -0.296853 -0.004918
v 0.025000 -0.297500 0.000000
v 0.025000 -0.296853 0.004918
v 0.025000 -0.294954 0.009500
v 0.025000 -0.291935 0.013435
v 0.025000 -0.288000 0.016454
v 0.025000 -0.283418 0.018353
v 0.025000 -0.278500 0.019000
v 0.025000 -0.273582 0.018353
v 0.025000 -0.269000 0.016454
v 0.025000 -0.265065 0.013435
v 0.025000 -0.262046 0.009500
v 0.025000 -0.260147 0.004918
v 0.025000 -0.259500 -0.000000
v 0.025000 -0.260147 -0.004918
v 0.025000 -0.262046 -0.009500
v 0.025000 -0.265065 -0.013435
v 0.025000 -0.269000 -0.016454
v 0.025000 -0.273582 -0.018353
v 0.025000 -0.278500 -0.019000
v -0.025000 -0.283418 -0.018353
v -0.025000 -0.288000 -0.016454
v -0.025000 -0.291935 -0.013435
v -0.025000 -0.294954 -0.009500
v -0.025000 -0.296853 -0.004918
v -0.025000 -0.297500 0.000000
v -0.025000 -0.296853 0.004918
v -0.025000 -0.294954 0.009500
v -0.025000 -0.291935 0.013435
v -0.025000 -0.288000 0.016454
v -0.025000 -0.283418 0.018353
v -0.025000 -0.278500 0.019000
v -0.025000 -0.273582 0.018353
v -0.025000 -0.269000 0.016454
v -0.025000 -0.265065 0.013435
v -0.025000 -0.262046 0.009500
v -0.025000 -0.260147 0.004918
v -0.025000 -0.259500 -0.000000
v -0.025000 -0.260147 -0.004918
v -0.025000 -0.262046 -0.009500
v -0.025000 -0.265065 -0.013435
v -0.025000 -0.269000 -0.016454
v -0.025000 -0.273582 -0.018353
v -0.025000 -0.278500 -0.019000
v -0.025000 -0.278500 -0.019000
v -0.025000 -0.273582 -0.018353
v -0.025000 -0.269000 -0.016454
v -0.025000 -0.265065 -0.013435
v -0.025000 -0.262046 -0.009500
v -0.025000 -0.260147 -0.004918
v -0.025000 -0.259500 -0.000000
v -0.025000 -0.260147 0.004918
v -0.025000 -0.262046 0.009500
v -0.025000 -0.265065 0.013435
v -0.025000 -0.269000 0.016454
v -0.025000 -0.273582 0.018353
v -0.025000 -0.278500 0.019000
v -0.025000 -0.283418 0.018353
v -0.025000 -0.288000 0.016454
v -0.025000 -0.291935 0.013435
v -0.025000 -0.294954 0.009500
v -0.025000 -0.296853 0.004918
v -0.025000 -0.297500 0.000000
v -0.025000 -0.296853 -0.004918
v -0.025000 -0.294954 -0.009500
v -0.025000 -0.291935 -0.013435
v -0.025000 -0.288000 -0.016454
v -0.025000 -0.283418 -0.018353
v 0.025000 -0.278500 -0.019000
v 0.025000 -0.273582 -0.018353
v 0.025000 -0.269000 -0.016454
v 0.025000 -0.265065 -0.013435
v 0.025000 -0.262046 -0.009500
v 0.025000 -0.260147 -0.004918
v 0.025000 -0.259500 -0.000000
v 0.025000 -0.260147 0.004918
v 0.025000 -0.262046 0.009500
v 0.025000 -0.265065 0.013435
v 0.025000 -0.269000 0.016454
v 0.025000 -0.273582 0.018353
v 0.025000 -0.278500 0.019000
v 0.025000 -0.283418 0.018353
v 0.025000 -0.288000 0.016454
v 0.025000 -0.291935 0.013435
v 0.025000 -0.294954 0.009500
v 0.025000 -0.296853 0.004918
v 0.025000 -0.297500 0.000000
v 0.025000 -0.296853 -0.004918
v 0.025000 -0.294954 -0.009500
v 0.025000 -0.291935 -0.013435
v 0.025000 -0.288000 -0.016454
v 0.025000 -0.283418 -0.018353
v 0.025000 -0.283418 -0.018353
v 0.025000 -0.288000 -0.016454
v 0.025000 -0.291935 -0.013435
v 0.025000 -0.294954 -0.009500
v 0.025000 -0.296853 -0.004918
v 0.025000 -0.297500 0.000000
v 0.025000 -0.296853 0.004918
v 0.025000 -0.294954 0.009500
v 0.025000 -0.291935 0.013435
v 0.025000 -0.288000 0.016454
v 0.025000 -0.283418 0.018353
v 0.025000 -0.278500 0.019000
v 0.025000 -0.273582 0.018353
v 0.025000 -0.269000 0.016454
v 0.025000 -0.265065 0.013435
v 0.025000 -0.262046 0.009500
v 0.025000 -0.260147 0.004918
v 0.025000 -0.259500 -0.000000
v 0.025000 -0.260147 -0.004918
v 0.025000 -0.262046 -0.009500
v 0.025000 -0.265065 -0.013435
v 0.025000 -0.269000 -0.016454
v 0.025000 -0.273582 -0.018353
v 0.025000 -0.278500 -0.019000
v -0.025000 -0.283418 -0.018353
v -0.025000 -0.288000 -0.016454
v -0.025000 -0.291935 -0.013435
v -0.025000 -0.294954 -0.009500
v -0.025000 -0.296853 -0.004918
v -0.025000 -0.297500 0.000000
v -0.025000 -0.296853 0.004918
v -0.025000 -0.294954 0.009500
v -0.025000 -0.291935 0.013435
v -0.025000 -0.288000 0.016454
v -0.025000 -0.283418 0.018353
v -0.025000 -0.278500 0.019000
v -0.025000 -0.273582 0.018353
v -0.025000 -0.269000 0.016454
v -0.025000 -0.265065 0.013435
v -0.025000 -0.262046 0.009500
v -0.025000 -0.260147 0.004918
v -0.025000 -0.259500 -0.000000
v -0.025000 -0.260147 -0.004918
v -0.025000 -0.262046 -0.009500
v -0.025000 -0.265065 -0.013435
v -0.025000 -0.269000 -0.016454
v -0.025000 -0.273582 -0.018353
v -0.025000 -0.278500 -0.019000
v -0.032289 -0.270787 -0.028784
v -0.032289 -0.278500 -0.029799
v -0.032289 -0.263600 -0.025807
v -0.032289 -0.257429 -0.021071
v -0.032289 -0.252693 -0.014900
v -0.032289 -0.249716 -0.007713
v -0.032289 -0.248701 -0.000000
v -0.032289 -0.249716 0.007713
v -0.032289 -0.252693 0.014900
v -0.032289 -0.257429 0.021071
v -0.032289 -0.263600 0.025807
v -0.032289 -0.270787 0.028784
v -0.032289 -0.278500 0.029799
v -0.032289 -0.286213 0.028784
v -0.032289 -0.293400 0.025807
v -0.032289 -0.299571 0.021071
v -0.032289 -0.304307 0.014900
v -0.032289 -0.307284 0.007713
v -0.032289 -0.308299 0.000000
v -0.032289 -0.307284 -0.007713
v -0.032289 -0.304307 -0.014900
v -0.032289 -0.299571 -0.021071
v -0.032289 -0.293400 -0.025807
v -0.032289 -0.286213 -0.028784
v 0.032289 -0.270787 -0.028784
v 0.032289 -0.278500 -0.029799
v 0.032289 -0.263600 -0.025807
v 0.032289 -0.257429 -0.021071
v 0.032289 -0.252693 -0.014900
v 0.032289 -0.249716 -0.007713
v 0.032289 -0.248701 -0.000000
v 0.032289 -0.249716 0.007713
v 0.032289 -0.252693 0.014900
v 0.032289 -0.257429 0.021071
v 0.032289 -0.263600 0.025807
v 0.032289 -0.270787 0.028784
v 0.032289 -0.278500 0.029799
v 0.032289 -0.286213 0.028784
v 0.032289 -0.293400 0.025807
v 0.032289 -0.299571 0.021071
v 0.032289 -0.304307 0.014900
v 0.032289 -0.307284 0.007713
v 0.032289 -0.308299 0.000000
v 0.032289 -0.307284 -0.007713
v 0.032289 -0.304307 -0.014900
v 0.032289 -0.299571 -0.021071
v 0.032289 -0.293400 -0.025807
v 0.032289 -0.286213 -0.028784
v -0.031918 -0.188571 -0.084702
v -0.031918 -0.191843 -0.087691
v -0.031918 -0.185523 -0.075942
v -0.025000 -0.105298 -0.113182
v -0.025000 -0.101631 -0.080032
v -0.025000 -0.099326 -0.041427
v -0.025000 -0.098540 -0.000000
v -0.025000 -0.099326 0.041427
v -0.025000 -0.101631 0.080031
v -0.025000 -0.105298 0.113182
v -0.031918 -0.185523 0.075942
v -0.031918 -0.188571 0.084702
v -0.031918 -0.191843 0.087691
v -0.031918 -0.195114 0.084702
v -0.031918 -0.198163 0.075942
v -0.031918 -0.198163 -0.075942
v -0.031918 -0.195114 -0.084702
v 0.031918 -0.188571 -0.084703
v 0.031918 -0.191843 -0.087691
v 0.031918 -0.185523 -0.075942
v 0.025000 -0.105298 -0.113181
v 0.025000 -0.101631 -0.080031
v 0.025000 -0.099326 -0.041427
v 0.025000 -0.098540 -0.000000
v 0.025000 -0.099326 0.041427
v 0.025000 -0.101631 0.080031
v 0.025000 -0.105298 0.113181
v 0.031918 -0.185523 0.075942
v 0.031918 -0.188571 0.084703
v 0.031918 -0.191843 0.087691
v 0.031918 -0.195114 0.084703
v 0.031918 -0.198163 0.075942
v 0.031918 -0.198163 -0.075942
v 0.031918 -0.195114 -0.084703
v -0.031918 -0.188571 -0.084702
v -0.031918 -0.185523 -0.075942
v -0.025000 -0.105298 -0.113182
v -0.025000 -0.101631 -0.080032
v -0.025000 -0.099326 -0.041427
v -0.025000 -0.098540 -0.000000
v -0.025000 -0.099326 0.041427
v -0.025000 -0.101631 0.080031
v -0.025000 -0.105298 0.113182
v -0.031918 -0.185523 0.075942
v -0.031918 -0.188571 0.084702
v 0.031918 -0.188571 -0.084703
v 0.031918 -0.185523 -0.075942
v 0.025000 -0.105298 -0.113181
v 0.025000 -0.101631 -0.080031
v 0.025000 -0.099326 -0.041427
v 0.025000 -0.098540 -0.000000
v 0.025000 -0.099326 0.041427
v 0.025000 -0.101631 0.080031
v 0.025000 -0.105298 0.113181
v 0.031918 -0.185523 0.075942
v 0.031918 -0.188571 0.084703
vn -0.8266 -0.2154 -0.5199
vn -0.8266 0.0735 0.5579
vn 0.8266 0.0735 -0.5579
vn -0.8266 -0.3426 -0.4465
vn -0.8266 0.2154 0.5199
vn 0.8266 -0.0735 -0.5579
vn -0.8266 -0.4465 -0.3426
vn -0.8266 0.3426 0.4465
vn 0.8266 -0.2154 -0.5199
vn -0.8266 -0.5199 -0.2154
vn 0.8266 0.0735 0.5579
vn -0.8266 0.4465 0.3426
vn 0.8266 -0.3426 -0.4465
vn -0.8266 -0.5579 -0.0735
vn 0.8266 0.2154 0.5199
vn -0.8266 0.5199 0.2154
vn 0.8266 -0.4465 -0.3426
vn -0.8266 -0.5579 0.0735
vn 0.8266 0.3426 0.4465
vn -0.8266 0.5579 0.0735
vn 0.8266 -0.5199 -0.2154
vn -0.8266 -0.5199 0.2154
vn 0.8266 0.4465 0.3426
vn -0.8266 0.5579 -0.0735
vn 1.0000 -0.0000 -0.0000
vn -0.0000 -0.6088 -0.7934
vn -0.0000 -0.7934 -0.6088
vn -0.0000 -0.9239 -0.3827
vn -0.0000 -0.9914 -0.1305
vn -0.0000 -0.9914 0.1305
vn -0.0000 -0.9239 0.3827
vn -0.0000 -0.7934 0.6088
vn -0.0000 -0.6088 0.7934
vn -0.9999 -0.0055 0.0151
vn 1.0000 0.0029 -0.0026
vn -1.0000 0.0015 0.0042
vn 1.0000 0.0015 -0.0042
vn -0.9999 -0.0079 0.0069
vn -1.0000 0.0029 0.0026
vn -0.0000 -0.4658 -0.8849
vn -0.9999 -0.0055 -0.0151
vn 0.9999 -0.0055 0.0151
vn -0.9709 0.1485 -0.1880
vn 0.9999 -0.0079 -0.0069
vn 1.0000 0.0015 0.0042
vn 0.8266 0.2154 -0.5199
vn 0.8266 -0.0735 0.5579
vn -0.8266 -0.0735 -0.5579
vn 0.8266 0.3426 -0.4465
vn 0.8266 -0.2154 0.5199
vn -0.8266 0.0735 -0.5579
vn 0.8266 0.4465 -0.3426
vn 0.8266 -0.3426 0.4465
vn -0.8266 0.2154 -0.5199
vn 0.8266 0.5199 -0.2154
vn -0.8266 -0.0735 0.5579
vn 0.8266 -0.4465 0.3426
vn -0.8266 0.3426 -0.4465
vn 0.8266 0.5579 -0.0735
vn -0.8266 -0.2154 0.5199
vn 0.8266 -0.5199 0.2154
vn -0.8266 0.4465 -0.3426
vn 0.8266 0.5579 0.0735
vn -0.8266 -0.3426 0.4465
vn 0.8266 -0.5579 0.0735
vn -0.8266 0.5199 -0.2154
vn 0.8266 0.5199 0.2154
vn -0.8266 -0.4465 0.3426
vn 0.8266 -0.5579 -0.0735
vn -0.9990 0.0432 0.0092
vn 1.0000 0.0029 0.0026
vn -0.9989 0.0465 0.0054
vn 0.9999 -0.0055 -0.0151
vn 0.9709 0.1485 -0.1880
vn -0.9988 0.0482 0.0018
vn -0.9999 -0.0079 -0.0069
vn 0.9990 0.0432 0.0092
vn -0.9988 0.0482 -0.0018
vn -0.0000 -0.4658 0.8849
vn 0.9989 0.0465 0.0054
vn -0.9989 0.0465 -0.0054
vn 0.9988 0.0482 0.0018
vn -0.9990 0.0432 -0.0092
vn 0.9988 0.0482 -0.0018
vn -0.9709 0.1485 0.1880
vn 0.9989 0.0465 -0.0054
vn -1.0000 0.0029 -0.0026
vn 0.9990 0.0432 -0.0092
vn -1.0000 0.0015 -0.0042
vn 0.9999 -0.0079 0.0069
vn 0.9709 0.1485 0.1880
vn -0.0000 -0.6744 -0.7384
vn -0.0000 -0.9444 -0.3287
vn -0.0000 -0.9444 0.3287
vn -0.0000 -0.6744 0.7383
vn -0.0000 0.6744 0.7384
vn -0.0000 0.6744 -0.7384
vn -0.0000 0.9444 0.3287
vn -0.0000 -0.4210 0.9070
vn -0.0000 0.9939 0.1099
vn -0.0000 0.9982 0.0596
vn -0.0000 0.9998 0.0190
vn -0.0000 0.9998 -0.0190
vn -0.0000 0.9982 -0.0596
vn -0.0000 0.9939 -0.1099
vn -0.0000 -0.4210 -0.9070
vn -0.0000 0.9444 -0.3287
vt 0.000000 0.000000
s 0
f 589/723/547 590/723/547 782/723/547 781/723/547
f 602/723/548 579/723/548 772/723/548 794/723/548
f 616/723/549 615/723/549 807/723/549 808/723/549
f 588/723/550 589/723/550 781/723/550 780/723/550
f 601/723/551 602/723/551 794/723/551 793/723/551
f 615/723/552 614/723/552 806/723/552 807/723/552
f 587/723/553 588/723/553 780/723/553 779/723/553
f 600/723/554 601/723/554 793/723/554 792/723/554
f 614/723/555 613/723/555 805/723/555 806/723/555
f 586/723/556 587/723/556 779/723/556 778/723/556
f 603/723/557 626/723/557 818/723/557 796/723/557
f 599/723/558 600/723/558 792/723/558 791/723/558
f 613/723/559 612/723/559 804/723/559 805/723/559
f 585/723/560 586/723/560 778/723/560 777/723/560
f 626/723/561 625/723/561 817/723/561 818/723/561
f 598/723/562 599/723/562 791/723/562 790/723/562
f 612/723/563 611/723/563 803/723/563 804/723/563
f 584/723/564 585/723/564 777/723/564 776/723/564
f 625/723/565 624/723/565 816/723/565 817/723/565
f 597/723/566 598/723/566 790/723/566 789/723/566
f 611/723/567 610/723/567 802/723/567 803/723/567
f 583/723/568 584/723/568 776/723/568 775/723/568
f 624/723/569 623/723/569 815/723/569 816/723/569
f 596/723/570 597/723/570 789/723/570 788/723/570
f 591/723/571 592/723/571 661/723/571 662/723/571
f 606/723/571 605/723/571 648/723/571 647/723/571
f 619/723/571 618/723/571 635/723/571 634/723/571
f 590/723/571 591/723/571 662/723/571 663/723/571
f 605/723/571 604/723/571 649/723/571 648/723/571
f 618/723/571 617/723/571 636/723/571 635/723/571
f 589/723/571 590/723/571 663/723/571 664/723/571
f 604/723/571 603/723/571 650/723/571 649/723/571
f 602/723/571 579/723/571 674/723/571 651/723/571
f 617/723/571 616/723/571 637/723/571 636/723/571
f 588/723/571 589/723/571 664/723/571 665/723/571
f 601/723/571 602/723/571 651/723/571 652/723/571
f 616/723/571 615/723/571 638/723/571 637/723/571
f 587/723/571 588/723/571 665/723/571 666/723/571
f 600/723/571 601/723/571 652/723/571 653/723/571
f 615/723/571 614/723/571 639/723/571 638/723/571
f 586/723/571 587/723/571 666/723/571 667/723/571
f 599/723/571 600/723/571 653/723/571 654/723/571
f 614/723/571 613/723/571 640/723/571 639/723/571
f 603/723/571 626/723/571 627/723/571 650/723/571
f 585/723/571 586/723/571 667/723/571 668/723/571
f 598/723/571 599/723/571 654/723/571 655/723/571
f 613/723/571 612/723/571 641/723/571 640/723/571
f 626/723/571 625/723/571 628/723/571 627/723/571
f 584/723/571 585/723/571 668/723/571 669/723/571
f 597/723/571 598/723/571 655/723/571 656/723/571
f 612/723/571 611/723/571 642/723/571 641/723/571
f 625/723/571 624/723/571 629/723/571 628/723/571
f 583/723/571 584/723/571 669/723/571 670/723/571
f 596/723/571 597/723/571 656/723/571 657/723/571
f 611/723/571 610/723/571 643/723/571 642/723/571
f 624/723/571 623/723/571 630/723/571 629/723/571
f 582/723/571 583/723/571 670/723/571 671/723/571
f 595/723/571 596/723/571 657/723/571 658/723/571
f 610/723/571 609/723/571 644/723/571 643/723/571
f 623/723/571 622/723/571 631/723/571 630/723/571
f 581/723/571 582/723/571 671/723/571 672/723/571
f 594/723/571 595/723/571 658/723/571 659/723/571
f 609/723/571 608/723/571 645/723/571 644/723/571
f 622/723/571 621/723/571 632/723/571 631/723/571
f 580/723/571 581/723/571 672/723/571 673/723/571
f 593/723/571 594/723/571 659/723/571 660/723/571
f 608/723/571 607/723/571 646/723/571 645/723/571
f 621/723/571 620/723/571 633/723/571 632/723/571
f 579/723/571 580/723/571 673/723/571 674/723/571
f 592/723/571 593/723/571 660/723/571 661/723/571
f 607/723/571 606/723/571 647/723/571 646/723/571
f 620/723/571 619/723/571 634/723/571 633/723/571
f 745/723/571 744/723/571 701/723/571 700/723/571
f 757/723/571 758/723/571 687/723/571 688/723/571
f 731/723/571 730/723/571 715/723/571 714/723/571
f 744/723/571 743/723/571 702/723/571 701/723/571
f 756/723/571 757/723/571 688/723/571 689/723/571
f 730/723/571 729/723/571 716/723/571 715/723/571
f 769/723/571 770/723/571 675/723/571 676/723/571
f 743/723/571 742/723/571 703/723/571 702/723/571
f 755/723/571 756/723/571 689/723/571 690/723/571
f 729/723/571 728/723/571 717/723/571 716/723/571
f 768/723/571 769/723/571 676/723/571 677/723/571
f 742/723/571 741/723/571 704/723/571 703/723/571
f 754/723/571 755/723/571 690/723/571 691/723/571
f 728/723/571 727/723/571 718/723/571 717/723/571
f 767/723/571 768/723/571 677/723/571 678/723/571
f 741/723/571 740/723/571 705/723/571 704/723/571
f 753/723/571 754/723/571 691/723/571 692/723/571
f 727/723/571 726/723/571 719/723/571 718/723/571
f 766/723/571 767/723/571 678/723/571 679/723/571
f 740/723/571 739/723/571 706/723/571 705/723/571
f 752/723/571 753/723/571 692/723/571 693/723/571
f 726/723/571 725/723/571 720/723/571 719/723/571
f 765/723/571 766/723/571 679/723/571 680/723/571
f 739/723/571 738/723/571 707/723/571 706/723/571
f 751/723/571 752/723/571 693/723/571 694/723/571
f 725/723/571 724/723/571 721/723/571 720/723/571
f 764/723/571 765/723/571 680/723/571 681/723/571
f 738/723/571 737/723/571 708/723/571 707/723/571
f 750/723/571 751/723/571 694/723/571 695/723/571
f 724/723/571 723/723/571 722/723/571 721/723/571
f 763/723/571 764/723/571 681/723/571 682/723/571
f 737/723/571 736/723/571 709/723/571 708/723/571
f 749/723/571 750/723/571 695/723/571 696/723/571
f 723/723/571 746/723/571 699/723/571 722/723/571
f 762/723/571 763/723/571 682/723/571 683/723/571
f 736/723/571 735/723/571 710/723/571 709/723/571
f 748/723/571 749/723/571 696/723/571 697/723/571
f 761/723/571 762/723/571 683/723/571 684/723/571
f 735/723/571 734/723/571 711/723/571 710/723/571
f 747/723/571 748/723/571 697/723/571 698/723/571
f 760/723/571 761/723/571 684/723/571 685/723/571
f 734/723/571 733/723/571 712/723/571 711/723/571
f 770/723/571 747/723/571 698/723/571 675/723/571
f 759/723/571 760/723/571 685/723/571 686/723/571
f 733/723/571 732/723/571 713/723/571 712/723/571
f 746/723/571 745/723/571 700/723/571 699/723/571
f 758/723/571 759/723/571 686/723/571 687/723/571
f 732/723/571 731/723/571 714/723/571 713/723/571
f 592/723/571 591/723/571 758/723/571 757/723/571
f 605/723/571 606/723/571 743/723/571 744/723/571
f 618/723/571 619/723/571 730/723/571 731/723/571
f 591/723/571 590/723/571 759/723/571 758/723/571
f 604/723/571 605/723/571 744/723/571 745/723/571
f 617/723/571 618/723/571 731/723/571 732/723/571
f 590/723/571 589/723/571 760/723/571 759/723/571
f 603/723/571 604/723/571 745/723/571 746/723/571
f 579/723/571 602/723/571 747/723/571 770/723/571
f 616/723/571 617/723/571 732/723/571 733/723/571
f 589/723/571 588/723/571 761/723/571 760/723/571
f 602/723/571 601/723/571 748/723/571 747/723/571
f 615/723/571 616/723/571 733/723/571 734/723/571
f 588/723/571 587/723/571 762/723/571 761/723/571
f 601/723/571 600/723/571 749/723/571 748/723/571
f 614/723/571 615/723/571 734/723/571 735/723/571
f 587/723/571 586/723/571 763/723/571 762/723/571
f 600/723/571 599/723/571 750/723/571 749/723/571
f 613/723/571 614/723/571 735/723/571 736/723/571
f 626/723/571 603/723/571 746/723/571 723/723/571
f 586/723/571 585/723/571 764/723/571 763/723/571
f 599/723/571 598/723/571 751/723/571 750/723/571
f 612/723/571 613/723/571 736/723/571 737/723/571
f 625/723/571 626/723/571 723/723/571 724/723/571
f 585/723/571 584/723/571 765/723/571 764/723/571
f 598/723/571 597/723/571 752/723/571 751/723/571
f 611/723/571 612/723/571 737/723/571 738/723/571
f 624/723/571 625/723/571 724/723/571 725/723/571
f 584/723/571 583/723/571 766/723/571 765/723/571
f 597/723/571 596/723/571 753/723/571 752/723/571
f 610/723/571 611/723/571 738/723/571 739/723/571
f 623/723/571 624/723/571 725/723/571 726/723/571
f 583/723/571 582/723/571 767/723/571 766/723/571
f 596/723/571 595/723/571 754/723/571 753/723/571
f 609/723/571 610/723/571 739/723/571 740/723/571
f 622/723/571 623/723/571 726/723/571 727/723/571
f 582/723/571 581/723/571 768/723/571 767/723/571
f 595/723/571 594/723/571 755/723/571 754/723/571
f 608/723/571 609/723/571 740/723/571 741/723/571
f 621/723/571 622/723/571 727/723/571 728/723/571
f 581/723/571 580/723/571 769/723/571 768/723/571
f 594/723/571 593/723/571 756/723/571 755/723/571
f 607/723/571 608/723/571 741/723/571 742/723/571
f 620/723/571 621/723/571 728/723/571 729/723/571
f 580/723/571 579/723/571 770/723/571 769/723/571
f 593/723/571 592/723/571 757/723/571 756/723/571
f 606/723/571 607/723/571 742/723/571 743/723/571
f 619/723/571 620/723/571 729/723/571 730/723/571
f 817/723/572 816/723/572 792/723/572 793/723/572
f 816/723/573 815/723/573 791/723/573 792/723/573
f 815/723/574 814/723/574 790/723/574 791/723/574
f 814/723/575 813/723/575 789/723/575 790/723/575
f 813/723/576 812/723/576 788/723/576 789/723/576
f 812/723/577 811/723/577 787/723/577 788/723/577
f 811/723/578 810/723/578 786/723/578 787/723/578
f 810/723/579 809/723/579 785/723/579 786/723/579
f 783/723/580 784/723/580 832/723/580 831/723/580
f 797/723/581 795/723/581 836/723/581 838/723/581
f 782/723/582 783/723/582 831/723/582 830/723/582
f 795/723/583 796/723/583 837/723/583 836/723/583
f 809/723/584 808/723/584 849/723/584 850/723/584
f 781/723/585 782/723/585 830/723/585 829/723/585
f 817/723/586 793/723/586 834/723/586 851/723/586
f 794/723/587 772/723/587 820/723/587 835/723/587
f 808/723/588 807/723/588 848/723/588 849/723/588
f 780/723/589 781/723/589 829/723/589 828/723/589
f 793/723/590 794/723/590 835/723/590 834/723/590
f 807/723/591 806/723/591 847/723/591 848/723/591
f 617/723/592 616/723/592 808/723/592 809/723/592
f 604/723/593 603/723/593 796/723/593 795/723/593
f 590/723/594 591/723/594 783/723/594 782/723/594
f 618/723/595 617/723/595 809/723/595 810/723/595
f 605/723/596 604/723/596 795/723/596 797/723/596
f 591/723/597 592/723/597 784/723/597 783/723/597
f 619/723/598 618/723/598 810/723/598 811/723/598
f 606/723/599 605/723/599 797/723/599 798/723/599
f 592/723/600 593/723/600 785/723/600 784/723/600
f 620/723/601 619/723/601 811/723/601 812/723/601
f 579/723/602 580/723/602 771/723/602 772/723/602
f 607/723/603 606/723/603 798/723/603 799/723/603
f 593/723/604 594/723/604 786/723/604 785/723/604
f 621/723/605 620/723/605 812/723/605 813/723/605
f 580/723/606 581/723/606 773/723/606 771/723/606
f 608/723/607 607/723/607 799/723/607 800/723/607
f 594/723/608 595/723/608 787/723/608 786/723/608
f 622/723/609 621/723/609 813/723/609 814/723/609
f 581/723/610 582/723/610 774/723/610 773/723/610
f 609/723/611 608/723/611 800/723/611 801/723/611
f 595/723/612 596/723/612 788/723/612 787/723/612
f 623/723/613 622/723/613 814/723/613 815/723/613
f 582/723/614 583/723/614 775/723/614 774/723/614
f 610/723/615 609/723/615 801/723/615 802/723/615
f 779/723/616 780/723/616 828/723/616 827/723/616
f 806/723/617 805/723/617 846/723/617 847/723/617
f 778/723/618 779/723/618 827/723/618 826/723/618
f 796/723/619 818/723/619 852/723/619 837/723/619
f 805/723/620 804/723/620 845/723/620 846/723/620
f 777/723/621 778/723/621 826/723/621 825/723/621
f 818/723/622 817/723/622 851/723/622 852/723/622
f 804/723/623 803/723/623 844/723/623 845/723/623
f 776/723/624 777/723/624 825/723/624 824/723/624
f 785/723/625 809/723/625 850/723/625 833/723/625
f 803/723/626 802/723/626 843/723/626 844/723/626
f 775/723/627 776/723/627 824/723/627 823/723/627
f 802/723/628 801/723/628 842/723/628 843/723/628
f 774/723/629 775/723/629 823/723/629 822/723/629
f 801/723/630 800/723/630 841/723/630 842/723/630
f 773/723/631 774/723/631 822/723/631 821/723/631
f 800/723/632 799/723/632 840/723/632 841/723/632
f 771/723/633 773/723/633 821/723/633 819/723/633
f 799/723/634 798/723/634 839/723/634 840/723/634
f 772/723/635 771/723/635 819/723/635 820/723/635
f 784/723/636 785/723/636 833/723/636 832/723/636
f 798/723/637 797/723/637 838/723/637 839/723/637
f 837/723/638 852/723/638 835/723/638 820/723/638
f 852/723/639 851/723/639 834/723/639 835/723/639
f 850/723/640 849/723/640 832/723/640 833/723/640
f 849/723/641 848/723/641 831/723/641 832/723/641
f 848/723/642 847/723/642 830/723/642 831/723/642
f 838/723/571 836/723/571 864/723/571 865/723/571
f 829/723/571 830/723/571 863/723/571 862/723/571
f 845/723/571 844/723/571 871/723/571 872/723/571
f 821/723/571 822/723/571 855/723/571 854/723/571
f 830/723/571 847/723/571 874/723/571 863/723/571
f 828/723/571 829/723/571 862/723/571 861/723/571
f 844/723/571 843/723/571 870/723/571 871/723/571
f 819/723/571 821/723/571 854/723/571 853/723/571
f 827/723/571 828/723/571 861/723/571 860/723/571
f 843/723/571 842/723/571 869/723/571 870/723/571
f 836/723/643 837/723/643 820/723/643 819/723/643
f 874/723/644 873/723/644 862/723/644 863/723/644
f 873/723/645 872/723/645 861/723/645 862/723/645
f 872/723/646 871/723/646 860/723/646 861/723/646
f 871/723/647 870/723/647 859/723/647 860/723/647
f 870/723/648 869/723/648 858/723/648 859/723/648
f 869/723/649 868/723/649 857/723/649 858/723/649
f 868/723/650 867/723/650 856/723/650 857/723/650
f 867/723/651 866/723/651 855/723/651 856/723/651
f 866/723/652 865/723/652 854/723/652 855/723/652
f 865/723/653 864/723/653 853/723/653 854/723/653
f 822/723/571 823/723/571 856/723/571 855/723/571
f 846/723/571 845/723/571 872/723/571 873/723/571
f 839/723/571 838/723/571 865/723/571 866/723/571
f 823/723/571 824/723/571 857/723/571 856/723/571
f 836/723/571 819/723/571 853/723/571 864/723/571
f 847/723/571 846/723/571 873/723/571 874/723/571
f 840/723/571 839/723/571 866/723/571 867/723/571
f 824/723/571 825/723/571 858/723/571 857/723/571
f 841/723/571 840/723/571 867/723/571 868/723/571
f 825/723/571 826/723/571 859/723/571 858/723/571
f 842/723/571 841/723/571 868/723/571 869/723/571
f 826/723/571 827/723/571 860/723/571 859/723/571
